<?xml version="1.0" encoding="utf-8"?>
<!-- Generator: Adobe Illustrator 17.0.0, SVG Export Plug-In . SVG Version: 6.00 Build 0)  -->
<!DOCTYPE svg PUBLIC "-//W3C//DTD SVG 1.1//EN" "http://www.w3.org/Graphics/SVG/1.1/DTD/svg11.dtd">
<svg version="1.1" id="Capa_1" xmlns="http://www.w3.org/2000/svg" xmlns:xlink="http://www.w3.org/1999/xlink" x="0px" y="0px"
	 width="850px" height="300px" viewBox="0 0 850 300" enable-background="new 0 0 850 300" xml:space="preserve">
<rect x="-3.603" y="-2.98" fill="#A07FB6" width="857.206" height="305.96"/>
<g opacity="0.5">
	<path fill="#FFFFFF" d="M558.463,155.179c-0.176-0.163-0.228-0.41-0.136-0.616c2.63-5.772,5.652-11.185,8.807-16.937
		c0.075-0.135,0.207-0.245,0.367-0.299c9.442-3.381,18.738-7.322,28.368-10.284c0.16-0.05,0.332-0.039,0.473,0.037
		c5.969,3.147,11.782,6.745,17.263,10.032c0.195,0.12,0.29,0.351,0.242,0.586c-0.047,0.234-0.23,0.428-0.464,0.492
		c-18.308,4.976-36.469,10.512-54.26,17.119C558.896,155.395,558.637,155.345,558.463,155.179z M595.914,128.282
		c-9.418,2.898-18.539,6.678-27.779,9.982c-2.887,5.274-5.648,10.276-8.113,15.512c17.023-6.126,34.244-11.706,51.736-16.349
		C606.697,134.381,601.371,131.15,595.914,128.282z"/>
	<path fill="#FFFFFF" d="M593.833,172.128c-11.467-6.855-22.897-11.078-35.698-16.628c-0.231-0.107-0.379-0.321-0.369-0.544
		c0.009-0.223,0.167-0.408,0.408-0.475c18.718-5.15,36.244-14.169,55.491-17.594c0.244-0.045,0.492,0.057,0.63,0.25
		c0.139,0.193,0.138,0.444,0.005,0.635c-7.594,10.884-13.736,23.693-19.695,34.174c-0.075,0.125-0.196,0.216-0.336,0.249
		C594.129,172.227,593.972,172.202,593.833,172.128z M560.035,155.124c12.024,5.101,22.93,9.301,33.819,15.751
		c5.664-10.023,11.519-22.008,18.61-32.582C594.369,141.926,577.634,149.955,560.035,155.124z"/>
	<path fill="#FFFFFF" d="M593.741,172.273c-11.289-6.603-22.86-11.496-35.475-16.809c-0.232-0.112-0.379-0.332-0.366-0.55
		c0.015-0.217,0.175-0.393,0.422-0.452c4.789-1.097,9.272-2.94,13.777-4.782c0.213-0.087,0.451-0.056,0.608,0.088
		c7.43,6.462,14.876,14.301,21.686,21.515c0.151,0.155,0.199,0.402,0.116,0.622c-0.005,0.011-0.008,0.022-0.012,0.033
		c-0.058,0.159-0.17,0.279-0.314,0.345c-0.009,0.004-0.016,0.004-0.025,0.009C594.021,172.348,593.874,172.34,593.741,172.273z
		 M560.186,155.151c10.914,4.479,21.075,8.713,31.096,14.518c-6.144-6.548-12.633-13.113-19.156-18.79
		C568.201,152.459,564.286,154.036,560.186,155.151z"/>
	<path fill="#FFFFFF" d="M593.925,172.068c-0.207-0.106-0.333-0.343-0.299-0.592c1.348-10.159,3.328-19.56,5.38-30.261
		c0.041-0.23,0.211-0.42,0.427-0.497c4.588-1.651,9.232-3.195,14.084-3.828c0.248-0.034,0.499,0.077,0.641,0.276
		c0.14,0.196,0.142,0.442,0.009,0.629c-7.422,11.15-13.666,23.255-19.469,34.004c-0.064,0.136-0.182,0.228-0.312,0.28
		C594.239,172.134,594.071,172.136,593.925,172.068z M600.099,141.723c-1.821,9.356-3.531,17.875-4.894,26.516
		c5.232-9.344,10.723-19.988,17.113-29.987C608.14,138.989,604.099,140.313,600.099,141.723z"/>
	<path fill="#FFFFFF" d="M576.704,163.299c-0.221,0.027-0.413-0.089-0.488-0.303c-3.041-8.378-6.087-16.754-9.139-25.127
		c-0.079-0.214,0.007-0.423,0.215-0.544c0.205-0.129,0.487-0.133,0.726-0.021c6.303,2.711,12.081,4.503,18.13,7.769
		c0.286,0.144,0.395,0.493,0.241,0.782c-3.079,6.258-6.37,11.203-9.159,17.036c-0.066,0.147-0.181,0.267-0.314,0.34
		C576.847,163.268,576.776,163.293,576.704,163.299z M568.782,138.888c2.675,7.433,5.347,14.866,8.015,22.303
		c2.538-5.227,5.476-9.76,8.252-15.326C579.628,143.014,574.411,141.309,568.782,138.888z"/>
	<path fill="#FFFFFF" d="M593.852,172.335c-5.57-3.027-11.594-6.711-17.367-9.024c-0.285-0.134-0.408-0.471-0.27-0.748
		c3.025-5.259,5.845-11.748,9.169-17.442c0.131-0.194,0.379-0.289,0.63-0.224c0.257,0.057,0.468,0.239,0.537,0.461
		c2.68,8.728,5.364,17.451,8.048,26.17c0.07,0.223,0.009,0.487-0.154,0.666c-0.054,0.059-0.113,0.102-0.18,0.137
		C594.132,172.391,593.983,172.393,593.852,172.335z M577.525,162.545c5.207,2.158,10.6,5.395,15.637,8.121
		c-2.471-7.924-4.944-15.85-7.415-23.777C582.792,152.01,580.239,157.762,577.525,162.545z"/>
	<path fill="#FFFFFF" d="M594.117,172.126c-0.216,0.012-0.401-0.12-0.472-0.343c-2.792-8.671-5.586-17.339-8.385-26
		c-0.072-0.22,0.016-0.433,0.218-0.548c0.201-0.124,0.478-0.116,0.698,0.007c6.055,3.027,11.679,5.305,17.484,8.965
		c0.138,0.076,0.234,0.204,0.276,0.356c0.039,0.15,0.021,0.31-0.058,0.45c-3.119,6.189-6.398,11.064-9.245,16.741
		c-0.066,0.142-0.178,0.256-0.31,0.319C594.254,172.106,594.191,172.122,594.117,172.126z M586.893,146.892
		c2.455,7.701,4.906,15.409,7.358,23.115c2.589-5.096,5.521-9.559,8.331-15.059C597.375,151.736,592.305,149.605,586.893,146.892z"
		/>
	<path fill="#FFFFFF" d="M594.128,171.944c-0.242,0.068-0.47-0.048-0.55-0.299c-2.763-8.627-5.529-17.249-8.295-25.868
		c-0.139-0.439,0.515-0.738,0.958-0.491c4.02,2.059,7.631,3.054,11.631,5.678c0.222,0.14,0.342,0.396,0.29,0.631
		c-1.267,6.967-2.494,13.4-3.559,19.787c-0.029,0.223-0.171,0.412-0.358,0.514C594.204,171.917,594.165,171.933,594.128,171.944z
		 M586.922,146.916c2.314,7.309,4.628,14.614,6.941,21.927c0.917-5.563,1.997-11.026,3.036-17.118
		C593.511,149.682,590.363,148.671,586.922,146.916z"/>
	<path fill="#FFFFFF" d="M558.333,155.222c-0.17-0.164-0.219-0.409-0.126-0.624c2.692-5.857,5.858-11.129,9.015-17.161
		c0.077-0.14,0.207-0.255,0.365-0.313c4.682-1.808,9.349-3.711,14.156-5.179c0.334-0.103,0.676,0.064,0.765,0.37
		c1.271,4.382,2.545,8.756,3.82,13.129c0.089,0.304-0.087,0.65-0.396,0.769c-8.847,3.429-18.127,5.62-26.951,9.129
		C558.755,155.432,558.501,155.387,558.333,155.222z M581.468,133.24c-4.487,1.429-8.868,3.171-13.262,4.847
		c-2.891,5.511-5.766,10.446-8.312,15.695c8.301-3.077,16.869-5.351,25.152-8.46C583.85,141.295,582.658,137.271,581.468,133.24z"/>
	<path fill="#FFFFFF" d="M585.602,146.1c-5.946-3.028-11.883-5.234-18.243-7.898c-0.228-0.102-0.367-0.31-0.347-0.535
		c0.019-0.223,0.19-0.416,0.436-0.488c9.615-2.865,18.66-7.6,28.449-10.031c0.249-0.058,0.505,0.023,0.656,0.215
		c0.148,0.187,0.158,0.446,0.027,0.653c-3.71,5.793-6.96,12.188-10.164,17.841c-0.078,0.138-0.211,0.237-0.357,0.279
		C585.912,146.178,585.747,146.172,585.602,146.1z M569.291,137.767c5.646,2.285,11.004,4.363,16.352,7.05
		c2.882-5.122,5.817-10.784,9.075-16.136C586.032,131.094,577.832,135.008,569.291,137.767z"/>
	<path fill="#FFFFFF" d="M571.928,150.559c-0.161-0.161-0.199-0.405-0.101-0.62c2.867-5.88,6.12-11.384,9.409-17.614
		c0.163-0.302,0.541-0.455,0.838-0.328c6.036,2.461,12.066,5.782,17.74,8.794c0.2,0.108,0.311,0.334,0.277,0.58
		c-0.033,0.242-0.202,0.457-0.432,0.536c-8.961,3.16-18.275,5.204-27.099,8.769C572.335,150.767,572.091,150.722,571.928,150.559z
		 M582.022,133.322c-2.958,5.561-5.862,10.593-8.505,15.786c8.023-3.047,16.346-5.163,24.478-7.875
		C592.843,138.449,587.441,135.57,582.022,133.322z"/>
	<path fill="#FFFFFF" d="M603.083,155.445c-5.577-3.051-11.624-6.927-17.452-9.342c-0.145-0.065-0.249-0.186-0.296-0.329
		c-0.046-0.147-0.034-0.306,0.046-0.443c3.298-5.421,6.395-12.255,10.051-18.023c0.136-0.195,0.398-0.286,0.653-0.214
		c0.263,0.064,0.473,0.256,0.535,0.485c2.41,9.007,4.826,18.015,7.25,27.017c0.063,0.231-0.008,0.502-0.181,0.694
		c-0.056,0.064-0.119,0.113-0.189,0.146C603.364,155.503,603.214,155.507,603.083,155.445z M586.721,145.318
		c5.251,2.251,10.669,5.647,15.715,8.406c-2.239-8.192-4.474-16.391-6.702-24.591C592.483,134.337,589.676,140.378,586.721,145.318z
		"/>
	<path fill="#FFFFFF" d="M585.899,146.073c-0.235,0.009-0.43-0.128-0.503-0.349c-1.419-4.317-2.834-8.634-4.255-12.946
		c-0.099-0.3,0.097-0.609,0.435-0.699c4.844-1.29,9.31-3.898,14.242-4.936c0.251-0.054,0.512,0.044,0.664,0.238
		c0.155,0.196,0.163,0.445,0.028,0.648c-3.622,5.9-6.909,11.98-10.049,17.677c-0.072,0.144-0.196,0.258-0.338,0.319
		C586.051,146.058,585.977,146.073,585.899,146.073z M582.533,132.983c1.183,3.657,2.367,7.315,3.55,10.974
		c2.706-4.935,5.558-10.021,8.562-15.3C590.517,129.808,586.629,131.763,582.533,132.983z"/>
	<path fill="#FFFFFF" d="M585.404,145.75c-1.418-4.318-2.836-8.636-4.255-12.952c-0.074-0.221,0.013-0.453,0.214-0.595
		c0.203-0.147,0.475-0.17,0.704-0.068c6.091,2.521,12.064,5.516,17.809,8.645c0.2,0.103,0.312,0.326,0.282,0.573
		c-0.03,0.249-0.195,0.472-0.421,0.56c-4.428,1.747-9.223,2.246-13.605,4.138C585.825,146.183,585.502,146.049,585.404,145.75z
		 M582.787,133.765c1.185,3.658,2.368,7.317,3.551,10.978c3.807-1.499,7.856-2.198,11.727-3.487
		C593.067,138.417,587.988,135.98,582.787,133.765z"/>
	<path fill="#FFFFFF" d="M656.682,128.319c-3.284-3.238-5.116-7.47-5.146-12.011c-0.031-4.534,1.753-8.767,5.03-11.997
		c3.276-3.234,7.655-5.164,12.318-5.356c4.667-0.192,9.05,1.488,12.33,4.81c6.762,6.874,6.646,18.191-0.111,25.072
		c-3.276,3.319-7.612,5.004-12.219,4.817C664.28,133.467,659.95,131.54,656.682,128.319z M657.392,105.102
		c-3.06,3.024-4.724,6.976-4.698,11.206s1.737,8.187,4.8,11.217c3.05,3.019,7.091,4.81,11.39,4.971
		c4.304,0.161,8.348-1.414,11.403-4.505c6.309-6.4,6.411-16.987,0.097-23.376c-3.057-3.1-7.149-4.668-11.5-4.502
		C664.536,100.279,660.45,102.075,657.392,105.102z M660.785,124.3c-4.475-4.459-4.524-11.517-0.048-15.979
		c2.173-2.158,5.069-3.419,8.15-3.502c3.078-0.081,5.975,1.051,8.147,3.229c4.475,4.496,4.425,12.01-0.054,16.515
		c-2.167,2.173-5.043,3.308-8.093,3.227C665.833,127.712,662.958,126.456,660.785,124.3z M661.566,109.121
		c-4.029,4.014-3.988,10.369,0.034,14.383c1.955,1.941,4.539,3.064,7.287,3.128c2.746,0.063,5.329-0.96,7.279-2.913
		c4.027-4.045,4.067-10.792,0.039-14.824c-1.95-1.959-4.55-2.984-7.318-2.917C666.117,106.042,663.515,107.174,661.566,109.121z"/>
	<path fill="#FFFFFF" d="M660.785,124.3c-4.475-4.459-4.524-11.517-0.048-15.979c2.173-2.158,5.069-3.419,8.15-3.502
		c3.078-0.081,5.975,1.051,8.147,3.229c4.475,4.496,4.425,12.01-0.054,16.515c-2.167,2.173-5.043,3.308-8.093,3.227
		C665.833,127.712,662.958,126.456,660.785,124.3z M661.566,109.121c-4.029,4.014-3.988,10.369,0.034,14.383
		c1.955,1.941,4.539,3.064,7.287,3.128c2.746,0.063,5.329-0.96,7.279-2.913c4.027-4.045,4.067-10.792,0.039-14.824
		c-1.95-1.959-4.55-2.984-7.318-2.917C666.117,106.042,663.515,107.174,661.566,109.121z M662.968,122.167
		c-1.586-1.582-2.468-3.651-2.474-5.847c-0.012-2.207,0.856-4.285,2.444-5.873c1.587-1.582,3.699-2.491,5.949-2.535
		c2.247-0.043,4.362,0.793,5.95,2.384c1.584,1.584,2.447,3.727,2.439,6.006c-0.007,2.283-0.883,4.42-2.465,6.003
		c-1.587,1.597-3.691,2.435-5.924,2.395C666.651,124.658,664.553,123.751,662.968,122.167z M663.766,111.252
		c-1.372,1.366-2.123,3.159-2.111,5.062c0.005,1.904,0.759,3.687,2.13,5.052c1.362,1.363,3.176,2.145,5.103,2.174
		c1.927,0.033,3.737-0.699,5.108-2.073c1.362-1.363,2.119-3.205,2.122-5.166c0.006-1.959-0.742-3.8-2.102-5.168
		c-1.371-1.366-3.189-2.097-5.128-2.063C666.95,109.105,665.126,109.886,663.766,111.252z"/>
	<path fill="#FFFFFF" d="M666.276,143.25c-2.486-0.785-4.972-1.548-7.461-2.259c-0.149-0.04-0.274-0.142-0.35-0.272
		c-0.077-0.131-0.1-0.287-0.065-0.432c0.391-1.521,0.784-3.045,1.177-4.568c-0.899-0.443-1.773-0.942-2.604-1.49
		c-1.084,1.056-2.167,2.115-3.248,3.185c-0.215,0.21-0.601,0.21-0.818,0c-1.827-1.783-3.658-3.536-5.492-5.277
		c-0.222-0.216-0.226-0.578-0.006-0.804c1.08-1.114,2.163-2.211,3.247-3.296c-0.541-0.801-1.034-1.649-1.474-2.539
		c-1.555,0.411-3.108,0.838-4.661,1.286c-0.147,0.047-0.305,0.028-0.438-0.048c-0.132-0.071-0.232-0.195-0.269-0.342
		c-0.666-2.467-1.332-4.95-1.999-7.452c-0.086-0.312,0.101-0.627,0.408-0.71c1.599-0.421,3.2-0.833,4.801-1.239
		c-0.028-0.632-0.028-1.232-0.002-1.819c-1.573-0.469-3.149-0.945-4.725-1.434c-0.146-0.046-0.273-0.153-0.347-0.289
		c-0.074-0.132-0.089-0.296-0.05-0.439c0.727-2.467,1.457-4.912,2.188-7.342c0.044-0.146,0.147-0.265,0.283-0.332
		c0.127-0.067,0.29-0.079,0.44-0.025c1.479,0.488,2.958,0.957,4.435,1.412c0.375-0.746,0.793-1.462,1.248-2.144
		c-1.061-1.037-2.121-2.083-3.184-3.145c-0.226-0.229-0.228-0.587-0.006-0.801c1.827-1.741,3.658-3.497,5.492-5.284
		c0.227-0.22,0.596-0.223,0.825-0.005c1.065,1.02,2.128,2.033,3.19,3.041c0.699-0.455,1.439-0.882,2.214-1.276
		c-0.454-1.429-0.908-2.857-1.363-4.286c-0.046-0.142-0.033-0.297,0.039-0.433c0.073-0.135,0.196-0.236,0.347-0.284
		c2.501-0.809,5.003-1.669,7.508-2.557c0.151-0.052,0.315-0.043,0.442,0.015c0.137,0.067,0.242,0.184,0.289,0.327
		c0.481,1.536,0.962,3.078,1.442,4.623c0.077-0.007,0.148-0.011,0.227-0.015c0.311-0.01,0.62-0.022,0.93-0.032
		c0.32-0.013,0.579,0.235,0.581,0.552c-0.002,1.495-0.002,2.99-0.002,4.485c0,0.322-0.26,0.59-0.582,0.602
		c-4.348,0.166-8.434,1.962-11.492,4.989c-3.06,3.024-4.724,6.976-4.698,11.206s1.737,8.187,4.8,11.217
		c3.05,3.019,7.091,4.81,11.39,4.971c0.318,0.011,0.574,0.277,0.574,0.599c0,1.499,0,2.996-0.001,4.494
		c0,0.322-0.256,0.567-0.574,0.552c-0.23-0.006-0.456-0.012-0.683-0.019c-0.409,1.589-0.817,3.173-1.227,4.752
		c-0.035,0.147-0.133,0.268-0.264,0.337c-0.089,0.048-0.188,0.072-0.29,0.065C666.369,143.274,666.326,143.267,666.276,143.25z
		 M667.792,136.939c0.099,0.014,0.197,0.019,0.297,0.022c0.072,0.002,0.146,0.004,0.219,0.005c0-1.114,0-2.228-0.001-3.343
		c-4.387-0.319-8.495-2.215-11.626-5.305c-3.284-3.238-5.116-7.47-5.146-12.011c-0.031-4.534,1.753-8.767,5.03-11.997
		c3.14-3.102,7.29-4.999,11.736-5.325c-0.002-1.112-0.002-2.223-0.002-3.335c-0.113,0.004-0.228,0.007-0.341,0.011
		c-0.206,0.01-0.406,0.022-0.611,0.051c-0.282,0.027-0.524-0.132-0.607-0.382c-0.466-1.504-0.933-3.002-1.401-4.498
		c-2.13,0.751-4.26,1.48-6.387,2.174c0.445,1.4,0.89,2.802,1.333,4.205c0.088,0.269-0.043,0.561-0.303,0.688
		c-1.032,0.507-2.009,1.075-2.908,1.687c-0.232,0.159-0.551,0.132-0.737-0.055c-1.038-0.988-2.076-1.978-3.115-2.979
		c-1.56,1.525-3.119,3.028-4.674,4.52c1.039,1.03,2.073,2.045,3.11,3.053c0.195,0.191,0.226,0.496,0.073,0.716
		c-0.617,0.882-1.17,1.827-1.642,2.82c-0.123,0.245-0.42,0.382-0.693,0.288c-1.45-0.441-2.9-0.893-4.351-1.368
		c-0.621,2.066-1.243,4.141-1.86,6.229c1.538,0.48,3.075,0.948,4.612,1.407c0.264,0.08,0.433,0.326,0.418,0.591
		c-0.063,0.815-0.064,1.666-0.003,2.587c0.015,0.27-0.164,0.515-0.43,0.582c-1.566,0.4-3.132,0.804-4.696,1.221
		c0.568,2.119,1.134,4.225,1.698,6.321c1.524-0.43,3.049-0.843,4.572-1.244c0.275-0.079,0.56,0.057,0.674,0.312
		c0.527,1.134,1.148,2.204,1.844,3.187c0.159,0.224,0.134,0.53-0.058,0.721c-1.062,1.056-2.121,2.12-3.179,3.202
		c1.561,1.489,3.119,2.99,4.675,4.512c1.057-1.05,2.117-2.089,3.177-3.125c0.198-0.182,0.508-0.217,0.738-0.051
		c1.019,0.708,2.118,1.336,3.261,1.867c0.256,0.12,0.396,0.404,0.324,0.673c-0.386,1.497-0.772,2.992-1.156,4.484
		c2.118,0.61,4.235,1.254,6.352,1.916c0.397-1.54,0.795-3.083,1.193-4.631c0.067-0.252,0.298-0.42,0.557-0.408
		C667.766,136.939,667.778,136.937,667.792,136.939z"/>
	<path fill="#FFFFFF" d="M671.715,143.377c-0.135-0.081-0.238-0.209-0.283-0.362c-0.468-1.609-0.939-3.214-1.409-4.812
		c-0.08,0-0.161-0.004-0.247-0.007c-0.296-0.017-0.595-0.034-0.891-0.053c-0.319-0.015-0.575-0.284-0.575-0.605
		c0-1.495,0-2.99-0.001-4.484c0-0.321,0.256-0.568,0.576-0.557c4.304,0.161,8.348-1.414,11.403-4.505
		c6.309-6.4,6.411-16.987,0.097-23.376c-3.057-3.1-7.149-4.668-11.5-4.502c-0.324,0.01-0.585-0.238-0.583-0.558
		c-0.002-1.491-0.002-2.983-0.002-4.475c0-0.32,0.26-0.59,0.585-0.605c0.141-0.007,0.281-0.017,0.419-0.031
		c0.096-0.007,0.192-0.015,0.283-0.022c0.42-1.634,0.839-3.274,1.258-4.918c0.037-0.151,0.137-0.285,0.272-0.37
		c0.132-0.089,0.286-0.109,0.442-0.089c2.532,0.5,5.064,1.027,7.592,1.603c0.309,0.07,0.501,0.389,0.417,0.708
		c-0.41,1.605-0.821,3.213-1.23,4.816c0.923,0.415,1.806,0.896,2.628,1.426c1.108-1.136,2.218-2.269,3.329-3.393
		c0.23-0.227,0.595-0.229,0.822,0c1.836,1.879,3.668,3.788,5.497,5.712c0.108,0.112,0.17,0.268,0.17,0.424
		c-0.001,0.156-0.062,0.303-0.171,0.413c-1.113,1.082-2.224,2.182-3.336,3.291c0.535,0.846,1.02,1.75,1.449,2.685
		c1.573-0.391,3.147-0.764,4.72-1.116c0.159-0.036,0.309-0.008,0.439,0.079c0.133,0.084,0.231,0.214,0.266,0.364
		c0.622,2.555,1.244,5.092,1.864,7.61c0.035,0.15,0.011,0.307-0.068,0.44c-0.079,0.13-0.205,0.227-0.356,0.263
		c-1.613,0.399-3.223,0.807-4.832,1.223c0.017,0.63,0.007,1.261-0.029,1.88c1.566,0.48,3.132,0.953,4.695,1.412
		c0.148,0.044,0.269,0.148,0.339,0.283c0.072,0.13,0.084,0.293,0.041,0.439c-0.773,2.49-1.545,5.005-2.314,7.533
		c-0.046,0.153-0.151,0.279-0.287,0.357c-0.132,0.077-0.292,0.092-0.437,0.061c-1.462-0.404-2.922-0.829-4.385-1.268
		c-0.384,0.79-0.809,1.547-1.267,2.264c1.038,1.066,2.074,2.12,3.11,3.16c0.218,0.224,0.216,0.598-0.007,0.83
		c-1.834,1.921-3.666,3.829-5.492,5.708c-0.216,0.231-0.605,0.224-0.818,0c-1.034-1.077-2.069-2.164-3.106-3.254
		c-0.693,0.451-1.428,0.87-2.197,1.242c0.437,1.508,0.872,3.018,1.308,4.529c0.086,0.316-0.084,0.639-0.391,0.727
		c-2.459,0.694-4.917,1.337-7.371,1.951c-0.056,0.01-0.113,0.015-0.167,0.014C671.89,143.455,671.794,143.426,671.715,143.377z
		 M677.361,136.061c-0.08-0.281,0.05-0.579,0.307-0.695c1.027-0.465,1.999-1.013,2.884-1.62c0.225-0.163,0.539-0.121,0.736,0.079
		c1.014,1.063,2.025,2.122,3.035,3.171c1.557-1.594,3.113-3.21,4.676-4.837c-1.013-1.023-2.026-2.062-3.041-3.107
		c-0.191-0.198-0.217-0.518-0.058-0.754c0.614-0.91,1.174-1.909,1.661-2.961c0.123-0.264,0.413-0.393,0.691-0.325
		c1.436,0.431,2.874,0.853,4.309,1.255c0.653-2.152,1.308-4.297,1.963-6.428c-1.524-0.446-3.051-0.904-4.576-1.369
		c-0.256-0.082-0.426-0.335-0.406-0.613c0.074-0.876,0.086-1.78,0.038-2.684c-0.011-0.285,0.171-0.538,0.44-0.607
		c1.575-0.405,3.151-0.803,4.728-1.19c-0.528-2.152-1.056-4.319-1.587-6.494c-1.541,0.353-3.081,0.725-4.622,1.112
		c-0.272,0.074-0.557-0.069-0.674-0.338c-0.515-1.188-1.128-2.323-1.818-3.358c-0.157-0.236-0.128-0.557,0.069-0.759
		c1.085-1.09,2.173-2.173,3.261-3.24c-1.557-1.627-3.116-3.243-4.679-4.837c-1.086,1.095-2.171,2.201-3.255,3.309
		c-0.192,0.203-0.507,0.234-0.737,0.081c-1.01-0.685-2.117-1.287-3.296-1.786c-0.26-0.111-0.394-0.39-0.326-0.675
		c0.401-1.572,0.803-3.145,1.205-4.72c-2.151-0.485-4.303-0.936-6.457-1.368c-0.41,1.603-0.819,3.203-1.227,4.8
		c-0.069,0.263-0.302,0.45-0.567,0.462c-0.008,0-0.021,0.001-0.035,0.001c-0.079,0.002-0.159,0.002-0.238,0.002
		c-0.1,0.004-0.196,0.014-0.297,0.022c0,1.118,0,2.233,0,3.349c4.45-0.036,8.604,1.64,11.748,4.823
		c6.762,6.874,6.646,18.191-0.111,25.072c-3.14,3.18-7.252,4.861-11.645,4.831c0,1.115,0,2.231,0,3.348
		c0.106,0.006,0.211,0.012,0.319,0.018c0.209,0.009,0.417,0.016,0.624,0.006c0.269,0.03,0.516,0.176,0.597,0.44
		c0.456,1.558,0.912,3.123,1.367,4.689c2.091-0.528,4.184-1.076,6.277-1.658C678.216,139.025,677.788,137.541,677.361,136.061z"/>
	<path fill="#FFFFFF" d="M609.12,93.595c1.712,0.809,3.009,2.253,3.642,4.051c0.634,1.799,0.533,3.739-0.277,5.486
		c-0.88,1.901-2.512,3.349-4.489,3.948c-1.628,0.495-3.373,0.362-4.914-0.367c-3.546-1.693-5.044-5.947-3.365-9.535
		c0.883-1.897,2.515-3.344,4.491-3.944l0,0C605.836,92.738,607.58,92.867,609.12,93.595z M612.198,102.998
		c0.771-1.671,0.869-3.525,0.262-5.244c-0.606-1.717-1.842-3.098-3.477-3.868c-1.47-0.694-3.136-0.815-4.69-0.343
		c-1.888,0.573-3.448,1.955-4.289,3.768c-1.602,3.43-0.17,7.498,3.215,9.109c1.47,0.697,3.136,0.82,4.692,0.349
		C609.799,106.198,611.357,104.815,612.198,102.998z"/>
	<path fill="#FFFFFF" d="M609.774,93.904c1.713,0.813,3.011,2.259,3.643,4.057c0.634,1.797,0.531,3.733-0.28,5.478
		c-0.882,1.898-2.514,3.345-4.49,3.945c-1.628,0.495-3.372,0.366-4.912-0.361c-3.542-1.683-5.041-5.941-3.367-9.537
		c0.881-1.901,2.513-3.349,4.489-3.948l0.001-0.001C606.487,93.043,608.233,93.174,609.774,93.904z M612.852,103.304
		c0.773-1.668,0.873-3.52,0.265-5.238c-0.605-1.716-1.844-3.097-3.48-3.872c-1.47-0.696-3.137-0.82-4.692-0.348h-0.001
		c-1.887,0.572-3.447,1.956-4.287,3.772c-1.597,3.438-0.164,7.508,3.216,9.111c1.47,0.695,3.136,0.816,4.691,0.344
		C610.45,106.499,612.009,105.118,612.852,103.304z"/>
	<path fill="#FFFFFF" d="M609.026,95.502c1.29,0.607,2.266,1.693,2.745,3.052s0.406,2.828-0.203,4.147
		c-0.663,1.438-1.894,2.528-3.385,2.982c-1.227,0.373-2.544,0.28-3.702-0.263c-1.287-0.605-2.264-1.69-2.744-3.048
		c-0.478-1.359-0.406-2.83,0.203-4.152c0.661-1.44,1.893-2.531,3.384-2.983h0.002C606.552,94.863,607.866,94.959,609.026,95.502z
		 M611.281,102.568c0.572-1.243,0.642-2.627,0.191-3.904c-0.452-1.278-1.37-2.298-2.583-2.867c-1.089-0.512-2.324-0.6-3.479-0.25
		l-0.002,0.001c-1.402,0.425-2.561,1.452-3.182,2.805c-0.571,1.245-0.641,2.631-0.189,3.908c0.451,1.279,1.369,2.298,2.58,2.865
		c1.089,0.511,2.326,0.599,3.481,0.247C609.499,104.946,610.659,103.921,611.281,102.568z"/>
	<path fill="#FFFFFF" d="M605.874,97.711c0.216,0.001,0.435,0.051,0.652,0.15c0.256,0.12,0.461,0.274,0.61,0.454
		c0.149,0.182,0.254,0.384,0.313,0.601c0.059,0.215,0.086,0.44,0.081,0.667c-0.004,0.184-0.022,0.375-0.054,0.565
		c0.424,0.197,0.848,0.394,1.271,0.591c0.022-0.151,0.02-0.281-0.007-0.39c-0.044-0.165-0.089-0.297-0.132-0.381
		c-0.025-0.05-0.05-0.101-0.075-0.152c0.326-0.147,0.654-0.295,0.981-0.442c0.022,0.045,0.044,0.089,0.067,0.135
		c0.03,0.064,0.066,0.149,0.106,0.254c0.042,0.109,0.074,0.241,0.095,0.398c0.021,0.149,0.027,0.32,0.014,0.518
		c-0.007,0.151-0.041,0.321-0.095,0.503c0.238,0.11,0.474,0.22,0.712,0.331c-0.122,0.266-0.244,0.532-0.366,0.797
		c-0.237-0.11-0.472-0.22-0.708-0.33c-0.129,0.208-0.266,0.382-0.408,0.518c-0.178,0.168-0.366,0.294-0.56,0.373
		c-0.203,0.085-0.401,0.116-0.602,0.108c-0.203-0.009-0.401-0.059-0.587-0.148c-0.261-0.121-0.461-0.273-0.596-0.454
		c-0.133-0.179-0.225-0.38-0.271-0.593c-0.046-0.206-0.059-0.429-0.041-0.664c0.016-0.179,0.037-0.357,0.063-0.535
		c-0.495-0.23-0.99-0.461-1.484-0.69c-0.02,0.085-0.034,0.165-0.04,0.244c-0.011,0.134-0.008,0.258,0.009,0.383
		c0.016,0.123,0.043,0.242,0.078,0.352c0.036,0.113,0.076,0.22,0.121,0.321c0.023,0.051,0.047,0.103,0.07,0.154
		c-0.333,0.141-0.667,0.282-1.001,0.422c-0.022-0.043-0.044-0.086-0.066-0.13c-0.063-0.125-0.12-0.266-0.167-0.423
		c-0.05-0.161-0.085-0.336-0.103-0.542c-0.019-0.198-0.012-0.414,0.018-0.64c0.023-0.183,0.073-0.378,0.139-0.579
		c-0.23-0.108-0.46-0.214-0.69-0.322c0.122-0.266,0.244-0.532,0.365-0.798c0.238,0.111,0.475,0.221,0.713,0.332
		c0.118-0.174,0.246-0.327,0.384-0.456c0.173-0.163,0.363-0.289,0.562-0.374c0.053-0.022,0.106-0.042,0.161-0.058
		C605.554,97.736,605.711,97.713,605.874,97.711z M603.735,98.766c-0.032,0.069-0.064,0.141-0.096,0.21
		c0.223,0.103,0.446,0.206,0.668,0.311c-0.017,0.047-0.036,0.095-0.053,0.141c-0.086,0.228-0.143,0.446-0.171,0.648
		c-0.027,0.203-0.033,0.392-0.017,0.566c0.018,0.182,0.047,0.337,0.091,0.476c0.027,0.086,0.054,0.167,0.087,0.242
		c0.14-0.06,0.281-0.119,0.422-0.179c-0.025-0.066-0.049-0.132-0.069-0.202c-0.04-0.127-0.07-0.265-0.09-0.405
		c-0.021-0.148-0.024-0.298-0.01-0.455c0.013-0.159,0.049-0.323,0.107-0.498c0.019-0.057,0.038-0.113,0.058-0.171
		c0.674,0.314,1.349,0.628,2.023,0.942c-0.007,0.04-0.013,0.08-0.02,0.121c-0.033,0.21-0.059,0.421-0.077,0.632
		c-0.017,0.201-0.007,0.391,0.033,0.564c0.037,0.171,0.109,0.33,0.214,0.471c0.105,0.139,0.264,0.259,0.478,0.358
		c0.153,0.072,0.312,0.112,0.474,0.119c0.157,0.007,0.314-0.018,0.468-0.083c0.157-0.065,0.311-0.169,0.46-0.311
		c0.149-0.14,0.29-0.331,0.422-0.567c0.025-0.043,0.049-0.087,0.073-0.131c0.229,0.105,0.455,0.212,0.684,0.318
		c0.031-0.069,0.063-0.139,0.095-0.208c-0.226-0.107-0.453-0.212-0.679-0.317c0.015-0.046,0.031-0.092,0.047-0.138
		c0.072-0.209,0.113-0.396,0.122-0.557c0.011-0.174,0.007-0.322-0.012-0.45c-0.019-0.133-0.044-0.244-0.076-0.331
		c-0.013-0.03-0.025-0.058-0.034-0.086c-0.135,0.06-0.267,0.12-0.402,0.18c0.03,0.08,0.061,0.175,0.088,0.284
		c0.056,0.207,0.043,0.461-0.032,0.749c-0.017,0.062-0.033,0.125-0.05,0.187c-0.614-0.287-1.229-0.572-1.843-0.857
		c0.008-0.042,0.017-0.084,0.025-0.126c0.043-0.212,0.066-0.426,0.07-0.632c0.005-0.198-0.019-0.392-0.068-0.574
		c-0.048-0.175-0.131-0.333-0.253-0.482c-0.119-0.145-0.287-0.269-0.5-0.37c-0.178-0.081-0.35-0.121-0.524-0.121
		c-0.181,0.002-0.351,0.037-0.508,0.103c-0.167,0.072-0.32,0.173-0.468,0.313c-0.146,0.136-0.282,0.308-0.406,0.509
		c-0.024,0.041-0.049,0.082-0.074,0.122C604.187,98.977,603.96,98.871,603.735,98.766z M606.219,98.597
		c0.231,0.108,0.392,0.265,0.478,0.468c0.084,0.198,0.107,0.483,0.066,0.873c-0.008,0.076-0.016,0.152-0.023,0.228
		c-0.659-0.309-1.32-0.615-1.98-0.922c0.033-0.053,0.066-0.105,0.098-0.158c0.186-0.295,0.386-0.477,0.645-0.568
		C605.723,98.452,605.962,98.479,606.219,98.597z M606.464,99.68c0.009-0.258-0.024-0.402-0.057-0.48
		c-0.055-0.132-0.161-0.232-0.321-0.308c-0.188-0.087-0.349-0.107-0.514-0.057l-0.001,0.001c-0.116,0.041-0.231,0.132-0.338,0.27
		C605.643,99.297,606.053,99.488,606.464,99.68z M608.877,101.41c-0.029,0.051-0.059,0.103-0.088,0.155
		c-0.182,0.323-0.391,0.523-0.619,0.597c-0.009,0.003-0.017,0.005-0.026,0.008c-0.22,0.066-0.431,0.055-0.629-0.037
		c-0.107-0.051-0.198-0.111-0.271-0.174c-0.086-0.075-0.148-0.172-0.189-0.284c-0.038-0.108-0.059-0.237-0.063-0.382
		c-0.005-0.145,0.009-0.316,0.039-0.511c0.011-0.071,0.021-0.143,0.032-0.214C607.668,100.849,608.272,101.129,608.877,101.41z
		 M608.078,101.853c0.117-0.038,0.232-0.137,0.343-0.296c-0.368-0.172-0.736-0.343-1.104-0.514
		c-0.008,0.087-0.011,0.164-0.009,0.234c0.004,0.11,0.019,0.205,0.047,0.283c0.021,0.063,0.055,0.111,0.099,0.152
		c0.049,0.044,0.117,0.087,0.198,0.125c0.127,0.06,0.261,0.065,0.406,0.022c0.015,0.051,0.028,0.103,0.043,0.155
		C608.093,101.96,608.086,101.907,608.078,101.853z"/>
	<path fill="#FFFFFF" d="M728.596,162.885c-4.915,0.659-9.578-2.414-10.766-7.413c-1.258-5.295,1.849-10.48,6.958-11.788
		c-0.323-0.78-0.577-1.58-0.763-2.38c-1.932-8.272,3.381-16.348,11.731-18.515c2.107-0.535,4.258-0.625,6.401-0.244
		c1.518,0.27,2.96,0.763,4.285,1.466c1.396-0.927,2.899-1.599,4.484-1.987c7.207-1.796,14.525,2.716,16.773,9.943
		c5.003,0.299,9.286,4.014,10.292,8.991c1.135,5.623-1.912,11.542-7.179,13.5c-0.074,0.066-0.162,0.118-0.269,0.143
		c-13.755,3.219-27.821,5.014-41.562,8.292C728.844,162.926,728.708,162.927,728.596,162.885z M770.219,153.351
		c4.821-1.658,7.63-6.981,6.593-12.099c-0.933-4.597-4.957-7.984-9.579-8.053c-0.267-0.002-0.507-0.19-0.581-0.452
		c-1.913-6.866-8.74-11.173-15.464-9.51c-1.555,0.379-3.031,1.057-4.39,2.003c-0.188,0.129-0.441,0.144-0.646,0.035
		c-1.301-0.735-2.73-1.241-4.249-1.514c-1.97-0.358-3.95-0.28-5.883,0.208c-7.69,1.976-12.572,9.461-10.799,17.077
		c0.223,0.963,0.557,1.915,0.985,2.844c0.077,0.164,0.076,0.361-0.01,0.524c-0.087,0.156-0.233,0.264-0.41,0.304
		c-0.01,0.003-0.023,0.005-0.023,0.005c-0.082,0.013-0.152,0.019-0.312,0.03c-4.673,1.01-7.569,5.675-6.444,10.421
		c1.056,4.45,5.302,7.2,9.71,6.484c0.085-0.01,0.169-0.005,0.247,0.015c13.595-3.21,27.483-5.081,41.09-8.236
		C770.104,153.399,770.161,153.37,770.219,153.351z"/>
	<path fill="#FFFFFF" d="M728.596,162.885c-4.913,0.663-9.579-2.413-10.766-7.413c-1.258-5.295,1.849-10.48,6.958-11.788
		c-0.323-0.78-0.577-1.58-0.763-2.38c-1.932-8.272,3.381-16.348,11.731-18.515c0.612-0.154,1.278-0.27,2.089-0.368
		c0.307-0.034,0.582,0.158,0.648,0.455c0.066,0.297-0.099,0.601-0.382,0.717c-6.636,2.726-10.488,9.741-8.914,16.581
		c0.22,0.962,0.551,1.916,0.979,2.842c0.077,0.164,0.072,0.361-0.012,0.523c-0.091,0.163-0.246,0.253-0.438,0.31
		c-0.024,0.006-0.283,0.029-0.306,0.029c-4.673,1.019-7.581,5.644-6.48,10.328c1.033,4.396,5.281,7.189,9.708,6.554
		c0.239-0.034,0.517,0.146,0.642,0.352c0.101,0.163,0.118,0.366,0.043,0.539c-0.077,0.175-0.237,0.303-0.425,0.344
		c-1.311,0.288-2.621,0.586-3.927,0.897C728.844,162.926,728.708,162.927,728.596,162.885z M719.008,155.173
		c1.05,4.433,5.263,7.179,9.65,6.494c-3.324-0.932-6.054-3.58-6.898-7.175c-0.858-3.646,0.41-7.276,3.01-9.561
		C720.493,146.222,717.941,150.667,719.008,155.173z M728.002,140.437c-1.374-5.967,1.055-12.019,5.809-15.728
		c-6.389,2.732-10.186,9.47-8.591,16.336c0.222,0.96,0.557,1.916,0.984,2.835c0.779-0.462,1.636-0.826,2.555-1.067
		C728.437,142.035,728.186,141.236,728.002,140.437z"/>
	<g>
		<path fill="#FFFFFF" d="M640.874,178.464c-0.092,0-0.184,0-0.276,0c-0.031-0.432-0.064-0.864-0.097-1.296
			c-0.036-0.496-0.326-0.868-0.568-1.092c-0.347-0.334-0.749-0.515-1.159-0.531c-0.452-0.018-0.906-0.032-1.359-0.041
			c-0.005-0.093-0.011-0.186-0.016-0.279c0.452-0.052,0.905-0.1,1.359-0.144c0.411-0.039,0.805-0.234,1.144-0.566
			c0.011-0.009,0.021-0.018,0.032-0.026c0.218-0.213,0.514-0.589,0.55-1.084c0.032-0.432,0.064-0.864,0.097-1.297
			c0.103,0,0.205,0,0.308,0c0.032,0.432,0.064,0.864,0.095,1.297c0.037,0.495,0.334,0.871,0.573,1.1
			c0.25,0.242,0.637,0.527,1.155,0.577c0.453,0.043,0.906,0.091,1.358,0.142c-0.005,0.093-0.011,0.186-0.016,0.279
			c-0.453,0.01-0.906,0.024-1.358,0.042c-0.518,0.019-0.914,0.293-1.151,0.52c-0.353,0.329-0.547,0.707-0.577,1.101
			C640.938,177.6,640.906,178.032,640.874,178.464z M639.097,175.304c0.374,0.079,0.727,0.271,1.03,0.564
			c0.009,0.01,0.018,0.019,0.027,0.029c0.295,0.273,0.493,0.602,0.583,0.953c0.089-0.354,0.292-0.687,0.6-0.974
			c0.311-0.298,0.667-0.492,1.037-0.57c-0.367-0.097-0.711-0.297-1.017-0.595c-0.315-0.3-0.527-0.635-0.621-0.987
			c-0.095,0.351-0.304,0.686-0.613,0.979C639.811,175.007,639.466,175.209,639.097,175.304z"/>
	</g>
	<g>
		<path fill="#FFFFFF" d="M804.729,162.801c-0.147,0-0.294,0-0.44,0c-0.05-0.689-0.101-1.379-0.154-2.068
			c-0.056-0.791-0.521-1.384-0.903-1.741c-0.556-0.534-1.195-0.822-1.851-0.848c-0.721-0.029-1.444-0.051-2.167-0.065
			c-0.008-0.148-0.017-0.297-0.026-0.445c0.721-0.083,1.444-0.159,2.168-0.229c0.657-0.062,1.284-0.374,1.826-0.902
			c0.017-0.014,0.034-0.029,0.05-0.043c0.346-0.339,0.822-0.938,0.878-1.728c0.051-0.689,0.102-1.378,0.155-2.068
			c0.164,0,0.328,0,0.492,0c0.052,0.689,0.103,1.379,0.153,2.068c0.059,0.791,0.532,1.388,0.914,1.755
			c0.396,0.387,1.015,0.843,1.842,0.92c0.723,0.069,1.445,0.145,2.166,0.227c-0.009,0.148-0.017,0.297-0.026,0.445
			c-0.723,0.015-1.445,0.038-2.166,0.067c-0.828,0.031-1.459,0.47-1.838,0.83c-0.563,0.526-0.872,1.128-0.918,1.756
			C804.831,161.423,804.779,162.112,804.729,162.801z M801.896,157.761c0.595,0.127,1.156,0.432,1.642,0.899
			c0.015,0.016,0.029,0.031,0.044,0.047c0.47,0.435,0.786,0.959,0.929,1.52c0.141-0.563,0.466-1.094,0.957-1.554
			c0.498-0.475,1.063-0.785,1.656-0.909c-0.584-0.153-1.134-0.474-1.623-0.95c-0.503-0.479-0.84-1.013-0.99-1.574
			c-0.15,0.56-0.484,1.092-0.978,1.562C803.036,157.286,802.483,157.608,801.896,157.761z"/>
	</g>
	<g>
		<path fill="#FFFFFF" d="M714.328,103.237c-0.15,0-0.3,0-0.45,0c-0.051-0.704-0.104-1.409-0.157-2.113
			c-0.058-0.809-0.532-1.414-0.924-1.78c-0.569-0.545-1.219-0.839-1.891-0.866c-0.737-0.029-1.476-0.051-2.215-0.065
			c-0.009-0.152-0.018-0.304-0.026-0.455c0.737-0.085,1.476-0.163,2.216-0.234c0.672-0.064,1.312-0.383,1.866-0.923
			c0.018-0.014,0.035-0.029,0.053-0.043c0.354-0.348,0.84-0.959,0.896-1.767c0.052-0.704,0.104-1.409,0.158-2.114
			c0.168,0,0.335,0,0.503,0c0.053,0.704,0.105,1.409,0.156,2.114c0.059,0.808,0.544,1.419,0.934,1.794
			c0.405,0.394,1.038,0.86,1.883,0.94c0.739,0.07,1.477,0.148,2.214,0.233c-0.009,0.152-0.017,0.304-0.026,0.455
			c-0.739,0.015-1.476,0.037-2.213,0.067c-0.846,0.031-1.491,0.482-1.878,0.848c-0.574,0.537-0.891,1.155-0.939,1.796
			C714.432,101.828,714.379,102.533,714.328,103.237z M711.432,98.086c0.608,0.131,1.183,0.442,1.679,0.919
			c0.015,0.016,0.03,0.032,0.045,0.048c0.481,0.444,0.804,0.981,0.948,1.553c0.145-0.576,0.476-1.117,0.979-1.589
			c0.508-0.487,1.086-0.8,1.692-0.93c-0.597-0.156-1.16-0.483-1.658-0.97c-0.514-0.49-0.859-1.036-1.012-1.61
			c-0.151,0.572-0.495,1.116-0.999,1.597C712.597,97.599,712.032,97.93,711.432,98.086z"/>
	</g>
	<g>
		<path fill="#FFFFFF" d="M695.221,172.422c-0.216,0-0.433,0-0.649,0c-0.074-1.016-0.149-2.032-0.227-3.048
			c-0.084-1.167-0.767-2.041-1.332-2.567c-0.82-0.785-1.761-1.21-2.728-1.249c-1.063-0.042-2.128-0.074-3.195-0.096
			c-0.013-0.219-0.025-0.437-0.038-0.656c1.063-0.122,2.128-0.235,3.195-0.337c0.969-0.091,1.893-0.552,2.692-1.331
			c0.025-0.021,0.051-0.042,0.076-0.062c0.512-0.501,1.211-1.383,1.293-2.547c0.075-1.016,0.151-2.032,0.229-3.049
			c0.242,0,0.484,0,0.725,0c0.077,1.016,0.152,2.032,0.226,3.049c0.085,1.164,0.784,2.046,1.347,2.587
			c0.584,0.569,1.497,1.241,2.715,1.356c1.067,0.101,2.13,0.213,3.193,0.335c-0.012,0.219-0.025,0.437-0.038,0.656
			c-1.066,0.022-2.13,0.055-3.193,0.098c-1.22,0.045-2.152,0.692-2.709,1.224c-0.829,0.776-1.284,1.664-1.353,2.59
			C695.372,170.39,695.296,171.406,695.221,172.422z M691.045,164.993c0.877,0.187,1.706,0.636,2.421,1.325
			c0.021,0.023,0.042,0.046,0.063,0.068c0.693,0.642,1.16,1.418,1.369,2.241c0.209-0.83,0.688-1.614,1.412-2.292
			c0.733-0.701,1.566-1.155,2.44-1.34c-0.863-0.225-1.672-0.699-2.392-1.399c-0.742-0.707-1.239-1.494-1.461-2.322
			c-0.221,0.825-0.712,1.611-1.44,2.304C692.725,164.292,691.91,164.767,691.045,164.993z"/>
	</g>
	<g>
		<path fill="#FFFFFF" d="M558.538,146.855c-0.177,0-0.354,0-0.531,0c-0.06-0.829-0.122-1.659-0.185-2.488
			c-0.068-0.953-0.627-1.667-1.088-2.096c-0.668-0.641-1.438-0.987-2.227-1.02c-0.869-0.034-1.738-0.06-2.609-0.078
			c-0.01-0.179-0.021-0.357-0.031-0.536c0.868-0.1,1.738-0.192,2.609-0.276c0.791-0.074,1.546-0.452,2.197-1.087
			c0.021-0.017,0.042-0.034,0.062-0.051c0.417-0.409,0.989-1.13,1.056-2.08c0.061-0.83,0.123-1.66,0.186-2.49
			c0.197,0,0.395,0,0.592,0c0.063,0.83,0.125,1.66,0.185,2.49c0.069,0.951,0.641,1.67,1.099,2.112
			c0.477,0.466,1.222,1.014,2.218,1.108c0.87,0.083,1.74,0.174,2.607,0.273c-0.01,0.179-0.021,0.357-0.031,0.536
			c-0.87,0.018-1.739,0.045-2.606,0.08c-0.997,0.038-1.756,0.567-2.212,1c-0.677,0.632-1.049,1.36-1.105,2.114
			C558.662,145.196,558.599,146.026,558.538,146.855z M555.128,140.789c0.715,0.153,1.394,0.521,1.977,1.082
			c0.017,0.019,0.035,0.037,0.052,0.056c0.565,0.524,0.948,1.156,1.117,1.83c0.171-0.679,0.561-1.317,1.153-1.871
			c0.599-0.572,1.279-0.943,1.992-1.095c-0.704-0.184-1.365-0.571-1.953-1.143c-0.605-0.578-1.011-1.219-1.193-1.897
			c-0.18,0.675-0.581,1.314-1.176,1.882C556.5,140.216,555.834,140.605,555.128,140.789z"/>
	</g>
	<path fill="#FFFFFF" d="M784.191,104.919c-13.327,1.001-24.297-11.309-24.456-24.625c-0.158-13.292,10.789-25.396,24.403-24.597
		c13.615,0.888,24.583,11.294,24.453,24.55C808.463,93.478,797.518,103.835,784.191,104.919z M784.139,56.632
		c-13.092-0.733-23.624,10.807-23.477,23.672c0.146,12.882,10.7,24.602,23.527,23.681c12.823-0.995,23.357-11.048,23.475-23.741
		C807.783,67.523,797.229,57.441,784.139,56.632z"/>
	<path fill="#FFFFFF" d="M784.186,100.522c-10.933,0.66-19.918-8.979-20.026-20.131c-0.108-11.138,8.858-20.683,19.983-20.176
		c11.125,0.555,20.11,9.318,20.026,20.077C804.085,91.036,795.119,99.817,784.186,100.522z M784.144,61.15
		c-10.605-0.456-19.156,8.589-19.057,19.247c0.099,10.669,8.667,19.79,19.099,19.191c10.431-0.638,18.98-9.056,19.056-19.297
		C803.318,70.038,794.75,61.647,784.144,61.15z"/>
	<path fill="#FFFFFF" d="M784.181,95.439c-8.194,0.369-14.912-6.586-14.975-15.028c-0.063-8.437,6.642-15.377,14.943-15.113
		c8.3,0.285,15.019,6.952,14.975,14.998C799.078,88.335,792.375,95.052,784.181,95.439z M784.15,66.233
		c-7.785-0.23-14.071,6.257-14.017,14.179c0.055,7.928,6.358,14.419,14.047,14.094c7.689-0.342,13.978-6.658,14.017-14.207
		C798.236,72.743,791.934,66.479,784.15,66.233z"/>
	<path fill="#FFFFFF" d="M784.175,90.484c-5.51,0.173-10.021-4.402-10.051-10.074c-0.03-5.671,4.471-10.264,10.03-10.156
		c5.559,0.113,10.069,4.62,10.051,10.06C794.186,85.752,789.686,90.305,784.175,90.484z M784.155,71.188
		c-5.044-0.087-9.128,4.076-9.103,9.22c0.025,5.147,4.119,9.287,9.123,9.142c5.003-0.149,9.089-4.287,9.103-9.231
		C793.292,75.371,789.198,71.278,784.155,71.188z"/>
	<path fill="#FFFFFF" d="M784.171,85.959c-3.053,0.06-5.545-2.442-5.555-5.563c-0.01-3.12,2.475-5.642,5.543-5.617
		c3.065,0.026,5.556,2.52,5.552,5.559C789.706,83.375,787.221,85.898,784.171,85.959z M784.159,75.713
		c-2.554-0.016-4.624,2.083-4.616,4.679c0.008,2.595,2.082,4.676,4.627,4.633c2.542-0.045,4.611-2.145,4.614-4.682
		C788.785,77.804,786.711,75.728,784.159,75.713z"/>
	<path fill="#FFFFFF" d="M785.234,81.528c-0.481-0.144-0.961-0.289-1.442-0.434c-0.146-0.482-0.291-0.965-0.437-1.448
		c0.066-0.067,0.13-0.134,0.196-0.202c6.337-6.451,12.719-12.498,19.144-18.663c-0.079-1.008-0.159-2.015-0.238-3.022
		c2.412-2.316,4.829-4.674,7.254-7.157c0.066,1.564,0.133,3.128,0.198,4.692c1.608-0.003,3.215-0.04,4.823-0.116
		c-2.423,2.613-4.84,5.063-7.25,7.446c-0.913-0.053-1.825-0.112-2.737-0.176C798.196,68.793,791.692,74.944,785.234,81.528z"/>
	<path fill="#53677A" d="M784.538,80.345c0.146,0.043,0.29,0.086,0.435,0.129c6.429-6.541,12.903-12.654,19.423-18.96
		c0.912,0.066,1.825,0.127,2.737,0.179c1.812-1.787,3.627-3.613,5.445-5.516c-1.188,0.029-2.377,0.038-3.566,0.029
		c-0.051-1.155-0.101-2.31-0.151-3.463c-1.817,1.838-3.631,3.615-5.44,5.364c0.079,1.007,0.159,2.014,0.238,3.021
		c-0.051,0.05-0.1,0.1-0.151,0.15c-6.41,6.174-12.777,12.198-19.099,18.627C784.45,80.052,784.495,80.197,784.538,80.345z"/>
	<path fill="#FFFFFF" d="M539.748,83.815c-3.13-10.813,3.12-22.157,13.934-25.287c10.813-3.131,22.157,3.12,25.287,13.933
		c3.132,10.817-3.12,22.161-13.932,25.291C554.223,100.882,542.88,94.631,539.748,83.815z M578.07,72.721
		c-2.987-10.317-13.811-16.281-24.128-13.294c-10.318,2.987-16.282,13.81-13.294,24.128c2.987,10.318,13.811,16.285,24.129,13.298
		S581.057,83.039,578.07,72.721z"/>
	<path fill="#FFFFFF" d="M541.986,83.171c-2.774-9.581,2.763-19.63,12.344-22.402c9.581-2.774,19.629,2.763,22.403,12.343
		c2.773,9.577-2.764,19.626-12.345,22.399C554.807,98.284,544.758,92.748,541.986,83.171z M575.834,73.372
		c-2.631-9.085-12.159-14.335-21.244-11.705c-9.086,2.63-14.335,12.158-11.705,21.244c2.629,9.082,12.157,14.331,21.242,11.701
		S578.463,82.454,575.834,73.372z"/>
	<path fill="#FFFFFF" d="M543.308,83.252c-0.238,0.068-0.485-0.069-0.554-0.305l0,0c-0.069-0.237,0.068-0.485,0.305-0.553
		l2.328-0.675c0.238-0.068,0.485,0.068,0.553,0.305l0,0c0.068,0.237-0.067,0.485-0.304,0.553L543.308,83.252z"/>
	<path fill="#FFFFFF" d="M573.854,74.408c-0.237,0.068-0.485-0.068-0.553-0.305l0,0c-0.068-0.238,0.068-0.485,0.305-0.554
		l2.328-0.674c0.238-0.069,0.485,0.068,0.554,0.305l0,0c0.068,0.237-0.067,0.485-0.305,0.553L573.854,74.408z"/>
	<path fill="#FFFFFF" d="M564.869,94.36c0.069,0.236-0.068,0.485-0.304,0.553l0,0c-0.237,0.068-0.485-0.068-0.554-0.305
		l-0.674-2.329c-0.068-0.237,0.068-0.484,0.305-0.553l0,0c0.237-0.068,0.484,0.068,0.552,0.305L564.869,94.36z"/>
	<path fill="#FFFFFF" d="M556.026,63.813c0.069,0.237-0.068,0.484-0.304,0.553l0,0c-0.238,0.069-0.485-0.068-0.554-0.305
		l-0.674-2.328c-0.069-0.237,0.067-0.485,0.305-0.553l0,0c0.237-0.068,0.484,0.068,0.552,0.305L556.026,63.813z"/>
	<path fill="#FFFFFF" d="M543.178,73.232c-0.235-0.075-0.365-0.326-0.289-0.562l0,0c0.076-0.235,0.327-0.364,0.562-0.289l2.309,0.74
		c0.234,0.075,0.364,0.327,0.289,0.562l0,0c-0.075,0.234-0.327,0.365-0.562,0.289L543.178,73.232z"/>
	<path fill="#FFFFFF" d="M573.462,82.937c-0.234-0.075-0.365-0.326-0.288-0.561l0,0c0.075-0.235,0.326-0.364,0.561-0.289l2.308,0.74
		c0.236,0.075,0.365,0.327,0.29,0.562l0,0c-0.076,0.235-0.326,0.364-0.562,0.289L573.462,82.937z"/>
	<path fill="#FFFFFF" d="M554.875,94.482c-0.075,0.234-0.327,0.364-0.561,0.289l0,0c-0.235-0.076-0.364-0.327-0.289-0.562
		l0.739-2.308c0.075-0.235,0.326-0.365,0.562-0.289l0,0c0.234,0.075,0.363,0.326,0.288,0.562L554.875,94.482z"/>
	<path fill="#FFFFFF" d="M564.579,64.198c-0.075,0.234-0.326,0.363-0.561,0.289l0,0c-0.235-0.076-0.364-0.327-0.289-0.562
		l0.74-2.308c0.075-0.236,0.326-0.365,0.562-0.289l0,0c0.234,0.075,0.364,0.326,0.289,0.562L564.579,64.198z"/>
	<path fill="#FFFFFF" d="M547.238,66.222c-0.173-0.175-0.172-0.458,0.004-0.632l0,0c0.175-0.174,0.458-0.172,0.631,0.003
		l1.705,1.723c0.174,0.175,0.172,0.458-0.004,0.632l0,0c-0.175,0.173-0.457,0.172-0.631-0.003L547.238,66.222z"/>
	<path fill="#FFFFFF" d="M569.604,88.828c-0.173-0.175-0.172-0.458,0.004-0.632l0,0c0.175-0.174,0.458-0.172,0.632,0.003
		l1.704,1.723c0.174,0.176,0.173,0.458-0.003,0.632l0,0c-0.175,0.174-0.458,0.172-0.632-0.003L569.604,88.828z"/>
	<path fill="#FFFFFF" d="M547.785,90.47c-0.175,0.173-0.457,0.172-0.631-0.003l0,0c-0.174-0.175-0.172-0.458,0.003-0.632
		l1.723-1.705c0.175-0.173,0.458-0.172,0.632,0.004l0,0c0.173,0.175,0.171,0.457-0.004,0.631L547.785,90.47z"/>
	<path fill="#FFFFFF" d="M570.392,68.104c-0.175,0.173-0.458,0.172-0.631-0.003l0,0c-0.174-0.175-0.172-0.458,0.003-0.632
		l1.723-1.705c0.175-0.173,0.458-0.172,0.632,0.004l0,0c0.173,0.175,0.171,0.458-0.004,0.632L570.392,68.104z"/>
	<path fill="#FFFFFF" d="M543.31,75.765l16.418-0.281c0.154-0.021,0.346-0.028,0.528-0.004c1.239,0.151,2.181,1.34,2.039,2.573
		l5.775,9.956l-8.153-7.875c-0.076-0.001-0.154-0.005-0.229-0.017c-0.184-0.019-0.371-0.072-0.565-0.149L543.31,75.765z
		 M561.318,77.411c-0.156-0.537-0.617-0.934-1.173-1.001c-0.102-0.013-0.216-0.01-0.348,0.009l-9.761,0.165l9.382,2.494
		c0.175,0.067,0.283,0.097,0.385,0.11c0.083,0.01,0.167,0.013,0.252,0.003l0.215-0.02l3.62,3.5l-2.585-4.458l0.039-0.179
		C561.386,77.779,561.369,77.59,561.318,77.411z"/>
	<path fill="#FFFFFF" d="M633.782,51.509c2.228-1.73,5.019-2.482,7.834-2.113c2.816,0.366,5.325,1.807,7.102,4.058
		c1.932,2.449,2.759,5.59,2.226,8.62c-0.439,2.497-1.789,4.727-3.795,6.282c-4.634,3.573-11.294,2.699-14.932-1.944
		c-1.927-2.449-2.749-5.592-2.218-8.62l0,0C630.437,55.296,631.78,53.065,633.782,51.509z M648.348,53.745
		c-1.701-2.149-4.099-3.525-6.791-3.876c-2.69-0.35-5.354,0.364-7.478,2.019c-1.912,1.485-3.193,3.616-3.611,6
		c-0.508,2.894,0.279,5.896,2.121,8.234c3.479,4.436,9.847,5.268,14.265,1.855c1.914-1.485,3.201-3.614,3.621-5.999
		C650.984,59.085,650.195,56.085,648.348,53.745z"/>
	<path fill="#FFFFFF" d="M634.634,50.848c2.233-1.729,5.028-2.481,7.841-2.112c2.815,0.367,5.317,1.807,7.089,4.058
		c1.928,2.449,2.752,5.591,2.22,8.619c-0.437,2.497-1.782,4.726-3.784,6.283c-4.619,3.573-11.284,2.7-14.935-1.943
		c-1.934-2.449-2.759-5.592-2.227-8.619l0.001-0.002C631.278,54.635,632.627,52.404,634.634,50.848z M649.194,53.084
		c-1.697-2.149-4.09-3.527-6.78-3.876c-2.688-0.351-5.356,0.366-7.485,2.019c-1.915,1.485-3.202,3.617-3.621,5.999v0.003
		c-0.509,2.892,0.28,5.895,2.127,8.232c3.494,4.436,9.864,5.269,14.269,1.856c1.911-1.486,3.193-3.616,3.611-6.001
		C651.822,58.423,651.035,55.422,649.194,53.084z"/>
	<path fill="#FFFFFF" d="M636.255,52.918c1.674-1.306,3.774-1.872,5.9-1.594c2.128,0.276,4.03,1.363,5.374,3.06
		c1.464,1.848,2.085,4.218,1.684,6.502c-0.33,1.881-1.338,3.569-2.839,4.741c-1.67,1.304-3.769,1.873-5.895,1.595
		c-2.128-0.278-4.033-1.364-5.382-3.062c-1.467-1.846-2.088-4.218-1.686-6.502v-0.003C633.741,55.774,634.752,54.092,636.255,52.918
		z M647.158,54.674c-1.265-1.597-3.057-2.62-5.057-2.88c-2.002-0.259-3.975,0.274-5.548,1.502c-1.412,1.102-2.361,2.684-2.672,4.455
		v0.001c-0.378,2.149,0.206,4.379,1.586,6.116c1.269,1.596,3.063,2.62,5.064,2.881c2.002,0.26,3.974-0.274,5.543-1.501
		c1.411-1.104,2.36-2.688,2.669-4.458C649.119,58.642,648.537,56.411,647.158,54.674z"/>
	<path fill="#FFFFFF" d="M637.069,58.592c0.146-0.287,0.36-0.546,0.637-0.766c0.334-0.26,0.675-0.428,1.015-0.505
		c0.34-0.076,0.681-0.08,1.009-0.011c0.324,0.065,0.641,0.181,0.94,0.341c0.243,0.13,0.484,0.281,0.715,0.451
		c0.547-0.43,1.094-0.86,1.64-1.289c-0.184-0.133-0.359-0.217-0.522-0.253c-0.25-0.053-0.455-0.081-0.594-0.081
		c-0.084-0.001-0.169-0.001-0.253-0.003c0.023-0.533,0.048-1.066,0.073-1.6c0.075,0.001,0.15,0.001,0.225,0.002
		c0.104,0.003,0.242,0.013,0.407,0.03c0.174,0.018,0.37,0.065,0.594,0.142c0.214,0.072,0.444,0.179,0.698,0.329
		c0.195,0.113,0.398,0.271,0.604,0.466c0.307-0.241,0.613-0.482,0.919-0.724c0.271,0.342,0.542,0.682,0.813,1.023
		c-0.305,0.24-0.61,0.479-0.915,0.718c0.191,0.31,0.329,0.61,0.413,0.89c0.104,0.35,0.145,0.684,0.121,0.994
		c-0.025,0.328-0.115,0.611-0.262,0.872c-0.149,0.262-0.348,0.492-0.592,0.681c-0.335,0.265-0.672,0.429-1.004,0.486
		c-0.328,0.057-0.655,0.044-0.97-0.039c-0.304-0.077-0.61-0.209-0.909-0.393c-0.228-0.141-0.45-0.288-0.67-0.443
		c-0.638,0.502-1.277,1.005-1.914,1.507c0.099,0.084,0.197,0.155,0.297,0.217c0.169,0.106,0.337,0.185,0.514,0.246
		c0.175,0.061,0.35,0.105,0.52,0.133c0.175,0.028,0.343,0.049,0.508,0.056c0.084,0.003,0.168,0.006,0.252,0.009
		c-0.037,0.537-0.074,1.076-0.113,1.614c-0.073,0-0.144-0.001-0.217-0.001c-0.208,0.001-0.433-0.02-0.674-0.062
		c-0.247-0.042-0.504-0.113-0.79-0.227c-0.276-0.11-0.558-0.263-0.839-0.454c-0.227-0.154-0.454-0.351-0.675-0.574
		c-0.298,0.233-0.594,0.466-0.892,0.7c-0.271-0.34-0.542-0.681-0.815-1.022c0.307-0.242,0.613-0.482,0.921-0.723
		c-0.154-0.275-0.269-0.548-0.349-0.818c-0.1-0.339-0.14-0.676-0.119-0.999c0.005-0.084,0.017-0.168,0.031-0.252
		C636.886,59.034,636.961,58.809,637.069,58.592z M637.032,62.141c0.072,0.09,0.144,0.18,0.215,0.27
		c0.288-0.227,0.574-0.453,0.862-0.68c0.051,0.055,0.102,0.112,0.153,0.167c0.244,0.267,0.496,0.489,0.746,0.662
		c0.251,0.172,0.499,0.308,0.741,0.403c0.254,0.099,0.479,0.165,0.692,0.199c0.133,0.023,0.259,0.04,0.379,0.047
		c0.016-0.227,0.032-0.453,0.049-0.681c-0.104-0.011-0.21-0.025-0.316-0.043c-0.196-0.033-0.399-0.084-0.599-0.153
		c-0.211-0.072-0.411-0.168-0.612-0.292c-0.202-0.124-0.396-0.281-0.589-0.477c-0.063-0.063-0.126-0.127-0.188-0.192
		c0.871-0.685,1.741-1.37,2.611-2.055c0.05,0.036,0.099,0.071,0.147,0.107c0.258,0.186,0.521,0.362,0.788,0.527
		c0.255,0.157,0.514,0.272,0.772,0.334c0.252,0.066,0.511,0.078,0.771,0.033c0.255-0.045,0.521-0.177,0.797-0.394
		c0.198-0.154,0.358-0.339,0.477-0.549c0.114-0.202,0.187-0.43,0.204-0.678c0.018-0.252-0.016-0.527-0.103-0.82
		c-0.085-0.292-0.244-0.608-0.469-0.942c-0.041-0.062-0.082-0.123-0.124-0.186c0.295-0.23,0.589-0.461,0.882-0.692
		c-0.07-0.088-0.141-0.178-0.212-0.266c-0.293,0.229-0.586,0.46-0.878,0.689c-0.051-0.051-0.102-0.103-0.153-0.155
		c-0.23-0.235-0.449-0.416-0.657-0.537c-0.224-0.132-0.422-0.227-0.607-0.288c-0.188-0.064-0.354-0.105-0.49-0.122
		c-0.048-0.004-0.095-0.006-0.137-0.013c-0.011,0.218-0.021,0.435-0.031,0.654c0.127,0.015,0.274,0.038,0.437,0.074
		c0.313,0.067,0.642,0.253,0.974,0.548c0.071,0.064,0.143,0.128,0.215,0.192c-0.793,0.623-1.587,1.248-2.379,1.873
		c-0.05-0.04-0.1-0.079-0.149-0.118c-0.255-0.199-0.522-0.374-0.794-0.518c-0.26-0.141-0.532-0.239-0.809-0.296
		c-0.265-0.054-0.53-0.05-0.81,0.013c-0.273,0.061-0.551,0.201-0.829,0.417c-0.228,0.181-0.396,0.383-0.513,0.614
		c-0.119,0.24-0.187,0.492-0.204,0.744c-0.018,0.271,0.015,0.542,0.1,0.832c0.084,0.286,0.22,0.582,0.403,0.881
		c0.038,0.06,0.076,0.121,0.113,0.181C637.616,61.684,637.324,61.913,637.032,62.141z M638.476,58.728
		c0.299-0.234,0.616-0.342,0.945-0.319c0.32,0.022,0.714,0.182,1.203,0.498c0.096,0.061,0.192,0.122,0.288,0.184
		c-0.853,0.669-1.704,1.34-2.557,2.011c-0.047-0.079-0.095-0.158-0.143-0.237c-0.266-0.445-0.374-0.834-0.32-1.24
		C637.951,59.29,638.147,58.991,638.476,58.728z M640.08,59.131c-0.337-0.185-0.55-0.237-0.676-0.245
		c-0.213-0.016-0.418,0.058-0.626,0.22c-0.24,0.191-0.376,0.391-0.42,0.644v0.002c-0.024,0.182,0.02,0.394,0.131,0.631
		C639.019,59.964,639.549,59.548,640.08,59.131z M644.003,57.09c0.049,0.073,0.098,0.146,0.146,0.22
		c0.305,0.459,0.433,0.872,0.376,1.224c-0.003,0.014-0.005,0.027-0.007,0.04c-0.059,0.336-0.217,0.61-0.471,0.811
		c-0.14,0.108-0.28,0.188-0.413,0.242c-0.157,0.065-0.327,0.081-0.504,0.06c-0.17-0.021-0.356-0.08-0.551-0.173
		c-0.195-0.09-0.413-0.223-0.653-0.395c-0.087-0.062-0.174-0.124-0.262-0.185C642.444,58.319,643.223,57.704,644.003,57.09z
		 M644.054,58.449c0.028-0.181-0.026-0.401-0.162-0.655c-0.476,0.374-0.951,0.748-1.425,1.121c0.11,0.07,0.21,0.126,0.305,0.17
		c0.149,0.07,0.285,0.112,0.406,0.128c0.098,0.015,0.185,0.002,0.269-0.029c0.093-0.037,0.195-0.098,0.3-0.18
		c0.164-0.128,0.262-0.303,0.302-0.525c0.077,0.015,0.156,0.031,0.234,0.047C644.206,58.501,644.131,58.475,644.054,58.449z"/>
	<path fill="#FFFFFF" d="M717.607,52.166c1.895,0.896,3.332,2.496,4.033,4.486c0.703,1.992,0.589,4.139-0.307,6.075
		c-0.975,2.104-2.781,3.708-4.97,4.371c-1.803,0.548-3.736,0.402-5.442-0.406c-3.926-1.874-5.584-6.586-3.726-10.558
		c0.978-2.101,2.785-3.702,4.972-4.367l0,0C713.971,51.218,715.903,51.36,717.607,52.166z M721.015,62.578
		c0.854-1.85,0.963-3.903,0.291-5.807c-0.672-1.901-2.04-3.429-3.851-4.282c-1.627-0.768-3.471-0.902-5.193-0.379
		c-2.09,0.635-3.817,2.165-4.749,4.172c-1.774,3.798-0.187,8.302,3.56,10.086c1.628,0.771,3.473,0.909,5.196,0.386
		C718.359,66.121,720.083,64.589,721.015,62.578z"/>
	<path fill="#FFFFFF" d="M718.332,52.508c1.898,0.901,3.334,2.502,4.034,4.492c0.702,1.99,0.588,4.134-0.31,6.065
		c-0.978,2.101-2.784,3.703-4.972,4.368c-1.803,0.549-3.733,0.406-5.438-0.399c-3.922-1.864-5.582-6.579-3.728-10.56
		c0.975-2.105,2.782-3.708,4.97-4.372l0.002-0.001C714.692,51.555,716.626,51.7,718.332,52.508z M721.739,62.917
		c0.855-1.848,0.966-3.898,0.294-5.799c-0.671-1.9-2.042-3.43-3.854-4.287c-1.628-0.772-3.475-0.909-5.196-0.387l-0.001,0.001
		c-2.09,0.633-3.817,2.165-4.747,4.176c-1.769,3.807-0.182,8.312,3.562,10.089c1.628,0.769,3.471,0.903,5.193,0.38
		C719.08,66.454,720.806,64.925,721.739,62.917z"/>
	<path fill="#FFFFFF" d="M717.502,54.278c1.43,0.672,2.509,1.875,3.04,3.378c0.531,1.505,0.449,3.132-0.226,4.593
		c-0.733,1.591-2.097,2.799-3.748,3.3c-1.359,0.414-2.817,0.312-4.098-0.29c-1.425-0.67-2.508-1.871-3.038-3.374
		c-0.53-1.505-0.449-3.134,0.224-4.599c0.732-1.593,2.096-2.802,3.746-3.302h0.002C714.763,53.571,716.219,53.676,717.502,54.278z
		 M720,62.101c0.634-1.376,0.711-2.908,0.211-4.322c-0.5-1.415-1.517-2.545-2.86-3.175c-1.206-0.567-2.573-0.665-3.852-0.277
		l-0.001,0.001c-1.552,0.471-2.836,1.608-3.524,3.106c-0.633,1.38-0.71,2.913-0.21,4.327c0.5,1.416,1.516,2.545,2.857,3.173
		c1.206,0.565,2.575,0.663,3.854,0.273C718.027,64.735,719.311,63.599,720,62.101z"/>
	<path fill="#FFFFFF" d="M714.013,56.725c0.239,0.001,0.483,0.055,0.723,0.164c0.284,0.135,0.511,0.304,0.676,0.503
		c0.165,0.201,0.281,0.425,0.347,0.665c0.065,0.238,0.095,0.487,0.089,0.739c-0.004,0.205-0.023,0.415-0.059,0.626
		c0.469,0.218,0.937,0.436,1.406,0.654c0.026-0.167,0.024-0.311-0.007-0.431c-0.049-0.183-0.099-0.329-0.146-0.421
		c-0.028-0.056-0.056-0.112-0.083-0.169c0.361-0.163,0.723-0.326,1.086-0.489c0.025,0.05,0.049,0.099,0.074,0.149
		c0.033,0.07,0.073,0.164,0.117,0.28c0.047,0.121,0.081,0.267,0.105,0.441c0.024,0.167,0.03,0.355,0.015,0.573
		c-0.009,0.168-0.045,0.356-0.105,0.558c0.263,0.122,0.525,0.244,0.787,0.367c-0.135,0.294-0.27,0.588-0.405,0.883
		c-0.262-0.122-0.522-0.244-0.784-0.366c-0.142,0.23-0.293,0.422-0.452,0.572c-0.197,0.186-0.405,0.326-0.619,0.414
		c-0.226,0.093-0.444,0.129-0.666,0.12c-0.224-0.011-0.443-0.065-0.651-0.164c-0.289-0.133-0.511-0.302-0.659-0.502
		c-0.148-0.199-0.25-0.42-0.3-0.657c-0.051-0.227-0.066-0.475-0.044-0.735c0.017-0.198,0.04-0.394,0.068-0.592
		c-0.547-0.255-1.095-0.51-1.642-0.764c-0.023,0.093-0.037,0.183-0.044,0.27c-0.014,0.148-0.01,0.286,0.009,0.423
		c0.018,0.137,0.047,0.267,0.086,0.39c0.039,0.125,0.083,0.244,0.133,0.356c0.026,0.056,0.052,0.114,0.078,0.17
		c-0.37,0.157-0.739,0.312-1.109,0.468c-0.024-0.049-0.048-0.097-0.073-0.145c-0.07-0.137-0.132-0.294-0.185-0.467
		c-0.055-0.178-0.095-0.373-0.114-0.601c-0.02-0.22-0.013-0.458,0.019-0.709c0.026-0.202,0.081-0.419,0.154-0.64
		c-0.254-0.12-0.509-0.238-0.763-0.357c0.135-0.295,0.269-0.589,0.404-0.884c0.264,0.123,0.526,0.245,0.789,0.368
		c0.132-0.194,0.273-0.363,0.425-0.506c0.193-0.181,0.403-0.321,0.624-0.415c0.057-0.025,0.117-0.046,0.177-0.065
		C713.658,56.751,713.832,56.726,714.013,56.725z M711.646,57.892c-0.036,0.077-0.072,0.156-0.107,0.233
		c0.247,0.114,0.493,0.228,0.74,0.344c-0.019,0.052-0.04,0.105-0.06,0.157c-0.096,0.252-0.158,0.493-0.188,0.718
		c-0.03,0.224-0.037,0.433-0.018,0.626c0.019,0.201,0.051,0.373,0.1,0.527c0.03,0.095,0.06,0.185,0.097,0.267
		c0.156-0.066,0.311-0.131,0.468-0.197c-0.028-0.073-0.055-0.147-0.078-0.224c-0.044-0.141-0.079-0.293-0.1-0.448
		c-0.023-0.164-0.027-0.33-0.012-0.504c0.015-0.176,0.053-0.357,0.119-0.551c0.021-0.063,0.043-0.125,0.065-0.189
		c0.747,0.347,1.492,0.695,2.24,1.042c-0.007,0.045-0.014,0.089-0.021,0.134c-0.038,0.234-0.066,0.467-0.085,0.7
		c-0.019,0.222-0.007,0.432,0.037,0.625c0.041,0.189,0.12,0.366,0.237,0.522c0.116,0.154,0.293,0.287,0.529,0.397
		c0.169,0.079,0.345,0.123,0.524,0.132c0.173,0.008,0.348-0.02,0.519-0.093c0.173-0.072,0.344-0.187,0.509-0.343
		c0.166-0.156,0.323-0.366,0.468-0.627c0.027-0.048,0.053-0.097,0.081-0.145c0.252,0.117,0.503,0.236,0.756,0.352
		c0.035-0.077,0.07-0.154,0.105-0.23c-0.25-0.118-0.502-0.234-0.752-0.351c0.016-0.051,0.034-0.102,0.051-0.154
		c0.079-0.232,0.126-0.438,0.135-0.616c0.013-0.194,0.009-0.357-0.013-0.499c-0.02-0.147-0.049-0.27-0.084-0.366
		c-0.013-0.034-0.027-0.065-0.037-0.096c-0.149,0.066-0.297,0.133-0.444,0.199c0.032,0.09,0.066,0.194,0.098,0.314
		c0.061,0.23,0.047,0.511-0.036,0.83c-0.018,0.069-0.037,0.139-0.055,0.208c-0.68-0.317-1.36-0.633-2.041-0.949
		c0.009-0.046,0.019-0.093,0.028-0.139c0.047-0.236,0.073-0.472,0.077-0.701c0.006-0.22-0.021-0.433-0.075-0.636
		c-0.054-0.193-0.146-0.368-0.281-0.533c-0.132-0.161-0.318-0.299-0.555-0.41c-0.196-0.09-0.387-0.134-0.58-0.134
		c-0.2,0.002-0.389,0.041-0.561,0.114c-0.186,0.079-0.355,0.191-0.519,0.346c-0.161,0.151-0.313,0.342-0.45,0.563
		c-0.027,0.044-0.055,0.09-0.082,0.135C712.145,58.126,711.895,58.009,711.646,57.892z M714.395,57.704
		c0.255,0.12,0.432,0.293,0.528,0.519c0.093,0.22,0.119,0.535,0.074,0.966c-0.008,0.084-0.017,0.169-0.026,0.253
		c-0.731-0.34-1.461-0.68-2.193-1.02c0.037-0.057,0.073-0.116,0.109-0.175c0.206-0.325,0.428-0.528,0.714-0.628
		C713.846,57.545,714.111,57.574,714.395,57.704z M714.666,58.903c0.009-0.286-0.027-0.444-0.064-0.531
		c-0.061-0.147-0.179-0.257-0.356-0.342c-0.207-0.095-0.385-0.118-0.569-0.062l-0.001,0.001c-0.129,0.044-0.254,0.145-0.375,0.298
		C713.757,58.479,714.212,58.691,714.666,58.903z M717.338,60.82c-0.032,0.057-0.065,0.114-0.097,0.171
		c-0.202,0.357-0.433,0.58-0.686,0.661c-0.01,0.003-0.019,0.005-0.029,0.008c-0.243,0.074-0.478,0.061-0.696-0.04
		c-0.119-0.056-0.219-0.124-0.3-0.193c-0.095-0.082-0.163-0.19-0.208-0.314c-0.043-0.12-0.066-0.262-0.07-0.423
		c-0.006-0.159,0.009-0.349,0.042-0.566c0.012-0.078,0.024-0.158,0.036-0.236C716,60.198,716.668,60.509,717.338,60.82z
		 M716.454,61.31c0.13-0.042,0.257-0.152,0.38-0.328c-0.408-0.19-0.815-0.379-1.222-0.569c-0.009,0.097-0.013,0.182-0.01,0.26
		c0.004,0.123,0.021,0.227,0.052,0.313c0.023,0.069,0.061,0.123,0.11,0.168c0.055,0.05,0.129,0.097,0.22,0.139
		c0.141,0.065,0.289,0.071,0.45,0.023c0.016,0.056,0.031,0.113,0.047,0.172C716.471,61.429,716.462,61.369,716.454,61.31z"/>
</g>
<g>
	<g>
		<g>
			<path fill="#FFFFFF" d="M74.585,75.696h5.101v23.376H91.48v4.433H74.585V75.696z"/>
			<path fill="#FFFFFF" d="M102.941,81.843c3.095,0,9.116,0.962,9.116,10.58c0,8.029-4.265,11.709-9.785,11.709
				c-5.604,0-9.075-3.596-9.075-11.165C93.197,84.269,98.634,81.843,102.941,81.843z M106.956,93.093
				c0-4.684-1.087-7.569-4.265-7.569c-3.053,0-4.433,2.844-4.433,6.858c0,3.889,0.627,8.071,4.349,8.071
				C105.659,100.452,106.956,97.442,106.956,93.093z"/>
			<path fill="#FFFFFF" d="M115.74,98.446c1.381,0.878,3.848,2.006,5.981,2.006c1.756,0,3.178-0.794,3.178-2.676
				c0-1.881-1.589-2.467-3.554-3.052c-3.052-0.878-6.482-1.882-6.482-6.231c0-4.349,3.596-6.649,7.653-6.649
				c3.136,0,5.854,1.255,7.568,2.969l-2.383,2.928c-1.589-1.381-3.345-2.259-5.101-2.259c-1.506,0-2.928,0.753-2.928,2.425
				c0,1.924,1.756,2.468,3.722,3.053c3.052,0.962,6.44,2.175,6.44,6.482c0,4.349-3.221,6.69-7.904,6.69
				c-3.595,0-6.565-1.296-7.652-2.132L115.74,98.446z"/>
		</g>
		<g>
			<path fill="#FFFFFF" d="M157.381,82.949v9.223h4.39v4.685h-4.439v7.595h-5.918v-7.645h-13.118v-4.093l9.764-20.763l4.686,2.318
				l-8.433,17.902h7.546v-2.17l2.071-7.053L157.381,82.949L157.381,82.949z"/>
			<path fill="#FFFFFF" d="M187.864,88.276c0,11.688-4.045,16.67-11.54,16.67c-7.546,0-11.344-4.982-11.344-16.473
				c0-11.343,4.636-16.422,11.689-16.422C183.573,72.051,187.864,76.636,187.864,88.276z M181.995,88.374
				c0-8.975-2.219-11.491-5.475-11.491c-3.451,0-5.572,2.812-5.572,12.133c0,8.532,2.121,11.195,5.473,11.195
				C179.676,100.211,181.995,97.745,181.995,88.374z"/>
		</g>
		<g>
			<path fill="#FFFFFF" d="M196.327,103.104V85.709l-0.377-3.638h4.141l0.418,2.634c1.381-2.091,3.429-3.262,6.063-3.262
				c2.635,0,4.642,1.004,5.813,3.346c1.255-2.175,3.471-3.346,6.105-3.346c4.223,0,6.649,2.468,6.649,7.402v14.26h-4.977V89.848
				c0-2.467-0.418-4.558-3.178-4.558c-2.301,0-3.764,1.924-3.764,4.098v13.717h-4.976V89.848c0-2.259-0.293-4.558-3.179-4.558
				c-2.341,0-3.764,2.008-3.764,4.265v13.549C201.301,103.104,196.327,103.104,196.327,103.104z"/>
			<path fill="#FFFFFF" d="M246.053,87.256c0,6.44-7.987,7.276-11.834,7.318c0.166,2.718,1.714,5.353,5.269,5.353
				c2.467,0,4.265-1.129,5.269-1.84l1.547,3.303c-0.669,0.585-3.429,2.341-7.36,2.341c-6.9,0-9.743-4.433-9.743-10.705
				c0-6.147,3.554-11.583,10.204-11.583C243.503,81.443,246.053,83.534,246.053,87.256z M239.112,84.997
				c-3.345,0-4.934,3.262-5.06,6.356c2.258,0.042,7.568-0.669,7.568-3.888C241.621,85.917,240.617,84.997,239.112,84.997z"/>
			<path fill="#FFFFFF" d="M249.695,82.071h4.976v22.455c0,4.015-0.753,7.946-6.69,7.946c-1.714,0-3.889-0.544-5.353-1.464
				l1.505-3.471c1.004,0.543,2.007,0.878,3.095,0.878c1.589,0,2.467-0.92,2.467-3.68V82.071z M252.287,73.246
				c1.673,0,2.886,1.255,2.886,2.802c0,1.59-1.213,2.76-2.928,2.76s-2.844-1.17-2.844-2.76
				C249.402,74.501,250.531,73.246,252.287,73.246z"/>
			<path fill="#FFFFFF" d="M268.43,81.443c3.095,0,9.116,0.962,9.116,10.58c0,8.029-4.265,11.709-9.785,11.709
				c-5.604,0-9.075-3.596-9.075-11.165C258.687,83.869,264.123,81.443,268.43,81.443z M272.445,92.692
				c0-4.684-1.087-7.569-4.265-7.569c-3.053,0-4.433,2.844-4.433,6.858c0,3.889,0.627,8.071,4.349,8.071
				C271.148,100.051,272.445,97.041,272.445,92.692z"/>
			<path fill="#FFFFFF" d="M286.624,103.104h-4.976V85.458l-0.377-3.387h4.099l0.501,3.052c0.92-2.383,2.969-3.68,5.061-3.68
				c1.254,0,2.425,0.293,3.345,0.836l-0.878,4.224c-0.92-0.502-1.882-0.836-2.969-0.836c-2.258,0-3.722,1.798-3.806,4.223V103.104z"
				/>
			<path fill="#FFFFFF" d="M311.801,87.256c0,6.44-7.987,7.276-11.834,7.318c0.166,2.718,1.714,5.353,5.269,5.353
				c2.467,0,4.265-1.129,5.269-1.84l1.547,3.303c-0.669,0.585-3.429,2.341-7.36,2.341c-6.9,0-9.743-4.433-9.743-10.705
				c0-6.147,3.554-11.583,10.204-11.583C309.25,81.443,311.801,83.534,311.801,87.256z M304.859,84.997
				c-3.345,0-4.934,3.262-5.06,6.356c2.258,0.042,7.568-0.669,7.568-3.888C307.368,85.917,306.364,84.997,304.859,84.997z"/>
			<path fill="#FFFFFF" d="M315.023,98.045c1.381,0.878,3.848,2.006,5.981,2.006c1.756,0,3.178-0.794,3.178-2.676
				c0-1.881-1.589-2.467-3.554-3.052c-3.052-0.878-6.482-1.882-6.482-6.231c0-4.349,3.596-6.649,7.653-6.649
				c3.136,0,5.854,1.255,7.568,2.969l-2.383,2.928c-1.589-1.381-3.345-2.259-5.101-2.259c-1.506,0-2.928,0.753-2.928,2.425
				c0,1.924,1.756,2.468,3.722,3.053c3.052,0.962,6.44,2.175,6.44,6.482c0,4.349-3.221,6.69-7.904,6.69
				c-3.595,0-6.565-1.296-7.652-2.132L315.023,98.045z"/>
		</g>
	</g>
	<g>
		<g>
			<path fill="#F1E3FF" d="M103.207,187.502c0.231,0,0.462,0.115,0.462,0.346c0,0.057,0,0.115-0.115,0.288
				c-2.709,3.861-3.861,8.012-3.861,11.816c0,7.262,4.208,13.256,9.682,13.256c16.946,0,27.954-54.063,27.55-53.141
				c0.403-0.865,1.615-1.268,2.825-1.268c1.614,0,3.227,0.692,3.227,2.018c0,7.55-0.403,17.636-0.403,26.166
				c0,9.453,0.462,16.945,2.306,16.945c3.689,0,11.7-37.234,16.945-46.455c0.058-0.115,0.289-0.23,0.403-0.23
				c0.174,0,0.289,0.114,0.519,0.403c0.346,0.461,2.018,2.19,3.055,2.881c0.633,0.462,0.864,0.98,0.864,1.556
				c0,0.346-0.115,0.75-0.231,1.21c-1.21,4.092-2.767,14.582-2.767,24.496c0,8.877,1.21,17.292,4.957,20.346
				c0.346,0.288,0.75,0.691,0.865,0.864c0.057,0.058,0.057,0.115,0.057,0.174c0,0.173-0.173,0.23-0.403,0.23
				c-0.173,0-0.346-0.057-0.462-0.114c0,0-0.173,0.288-0.576,0.288c-2.075,0-8.069-3.17-9.625-10.663
				c-1.095-5.188-1.441-9.625-1.441-13.776c0-3.689,0.288-7.089,0.576-10.547c0,0-0.057-0.231-0.173-0.231
				c-0.057,0-0.115,0.058-0.173,0.174c-1.326,3.17-6.225,22.305-10.432,30.663c-1.268,2.536-2.709,3.861-4.035,3.861
				c-5.764,0-6.34-18.386-6.34-28.876c0-3.92,0.057-8.3,0.231-13.084c-1.787,4.092-8.415,49.453-27.724,49.453
				c-6.628,0-12.161-5.879-12.161-13.948c0-4.496,1.729-9.683,5.878-14.928C102.804,187.561,103.034,187.502,103.207,187.502z"/>
			<path fill="#F1E3FF" d="M194.909,191.134c-0.288,0-0.462-0.058-0.577-0.058c-0.576,5.245-3.343,15.793-8.588,15.793
				c-2.248,0-4.437-1.96-5.014-7.147c-1.556,4.035-3.746,7.147-5.994,7.147c-3.977,0-5.707-4.208-5.707-9.164
				c0-7.205,3.574-16.023,9.049-16.023c3.055,0,4.554,1.96,4.957,4.611c1.038,0.288,2.479,0.75,2.479,1.441
				c0,1.672-0.808,6.916-0.808,11.008c0,2.94,0.403,5.245,1.844,5.245c3.747,0,5.36-7.204,6.052-13.544
				c-1.671-1.153-2.42-3.516-2.42-5.707c0-2.363,0.922-4.496,2.709-4.496c1.729,0,2.132,1.21,2.132,2.651
				c0,1.21-0.288,2.651-0.288,3.747c0,0.979,0.114,1.383,0.518,1.383c0.289,0,0.692-0.231,1.268-0.576
				c2.017-1.326,5.072-4.554,5.533-4.554c0.75,0,1.903,1.499,1.903,2.306c0,0.403-0.174,0.749-0.174,0.749s-1.038,2.709-1.441,3.689
				c-1.326,3.17-1.844,6.341-1.844,8.934c0,4.726,1.268,7.724,2.767,7.724c0.98,0,2.075-1.326,2.997-4.266
				c0.115-0.403,0.057-0.633,0.807-1.152c0.173-0.115,0.288-0.174,0.346-0.174c0.115,0,0.173,0.115,0.173,0.231
				c0,0.115-0.057,0.288-0.057,0.288c-0.231,4.784-3.228,7.781-5.995,7.781c-2.479,0-4.784-2.363-4.784-8.011
				c0-4.15,0.922-8.703,1.441-10.606C196.926,190.96,195.658,191.134,194.909,191.134z M181.077,188.021
				c-0.98-1.267-1.903-1.844-2.767-1.844c-3.573,0-5.937,9.28-5.937,13.833c0,2.363,0.576,4.035,1.729,4.035
				C178.829,204.045,180.558,192.575,181.077,188.021z"/>
			<path fill="#F1E3FF" d="M209.494,208.367c-0.115,0-0.231-0.058-0.403-0.174c-0.979-0.749-2.824-0.807-3.343-1.326
				c1.153-6.455,2.132-41.037,2.536-48.011c0-0.288,0-0.577,0.115-0.577c0.519,0,3.113,1.787,3.343,2.018
				c0.346,0.403,0.519,0.807,0.519,1.326c0,0.173,0,0.403-0.057,0.634c-0.807,7.492-1.038,19.366-1.384,26.685
				c2.132-4.265,5.707-7.435,8.242-7.435c2.017,0,3.112,1.441,3.112,3.458c0,3.401-2.996,8.357-9.452,11.066
				c1.267,2.997,3.977,6.397,7.55,6.397c1.21,0,2.479-0.345,3.861-1.267c0,0,0.346-0.288,0.519-0.288
				c0.115,0,0.231,0.288,0.231,0.461v0.115c-1.441,2.824-1.844,6.571-5.014,6.571c-4.842,0-7.838-7.031-9.279-10.317
				c-0.115,0-0.346,0.461-0.346,0.519c-0.346,0.807-0.462,3.285-0.462,5.533c0,1.555,0.058,2.939,0.115,3.631
				C209.897,207.963,209.782,208.367,209.494,208.367z M211.684,193.958c1.96,0,6.974-5.187,6.974-8.53
				c0-0.576-0.058-1.095-0.691-1.095c-2.248,0-6.571,7.147-6.629,8.934C211.338,193.727,211.396,193.958,211.684,193.958z"/>
			<path fill="#F1E3FF" d="M236.41,197.877c0-0.98-0.173-2.017-0.519-3.113c0-0.057,0-0.345,0.692-0.345
				c2.132,0,2.593,2.363,2.593,4.38c0,4.092-3.17,8.127-7.435,8.127c-5.937,0-8.415-5.245-8.415-11.009
				c0-6.974,3.631-14.64,9.222-14.64c2.594,0,4.035,1.902,4.035,4.553c0,3.574-2.652,8.415-8.704,11.874
				c0.346,4.784,2.075,6.628,3.978,6.628C234.105,204.333,236.41,201.623,236.41,197.877z M232.376,184.621
				c-2.537,0-4.438,5.533-4.554,10.663c2.305-1.556,5.418-6.743,5.418-9.567C233.24,185.197,233.009,184.621,232.376,184.621z"/>
			<path fill="#F1E3FF" d="M245.114,167.733c0.057,0,0.173,0,0.23,0.058c1.268,0.864,3.978,0.749,3.978,2.017
				c-0.519,2.767-1.038,5.014-1.672,8.184c6.052-0.519,11.873-1.672,13.026-1.672c0.691,0,1.671,0,1.671,0.462
				c0,0.403-0.691,0.403-0.864,0.691c-0.403,0.634-0.519,1.095-0.519,1.095c-1.038,0.462-7.781,2.075-14.064,3.055
				c-1.038,5.475-2.017,12.334-2.017,19.769c0,1.786,0.807,2.708,1.786,2.708c1.096,0,2.479-1.153,3.228-3.631
				c0.057-0.174,0.288-0.346,0.519-0.346c0.288,0,0.288,0.288,0.288,0.461c-0.807,4.323-2.767,6.225-4.784,6.225
				c-3.516,0-4.669-4.957-4.669-11.354c0-3.92,0.519-9.049,1.038-13.257c-1.326,0.173-2.594,0.231-3.631,0.231
				c-3.055,0-4.496-0.98-4.496-4.092c0-0.519,0.174-1.384,0.519-1.384c0.115,0,0.231,0.058,0.346,0.231
				c1.787,0.75,4.38,1.038,7.262,1.038h0.576c0.865-5.476,1.615-9.222,1.615-10.144
				C244.595,167.964,244.825,167.733,245.114,167.733z"/>
			<path fill="#F1E3FF" d="M251.512,197.877c0-5.764,1.268-14.005,2.306-14.005c0.979,0,1.96-0.058,3.515-0.403
				c0.692,0,0.692,0.461,0.692,0.461c-1.499,8.358-2.306,11.7-2.306,17.464c0,1.902,0.462,2.651,1.038,2.651
				c4.208,0,6.167-11.182,7.839-16.254c0.922-2.708,1.729-4.841,2.478-4.841c1.038,0,1.787-0.634,2.249-0.634
				c0.461,0,0.518,2.594,0.518,4.956c0,4.554-0.057,6.86-0.057,9.107c1.844-4.035,3.977-10.778,7.32-13.948
				c0.173-0.115,0.288-0.174,0.461-0.174c0.634,0,2.651,1.326,2.651,2.018c0,0.115,0,0.173-0.057,0.288
				c-1.441,3.227-2.018,8.357-2.018,11.816c0,3.055,0.75,6.051,1.96,6.051c0.692,0,1.556-0.979,2.479-3.515
				c0,0,0.115-0.058,0.231-0.058s0.173,0.058,0.173,0.174c0,2.363-1.556,5.878-3.861,5.878c-5.014,0-5.36-9.856-5.36-12.737
				c-2.767,2.996-4.149,10.893-5.418,14.697c-0.057,0.403-0.403,0.577-0.864,0.577c-1.211,0-2.709-1.384-2.709-1.556
				c0-0.115,0.403-3.862,0.75-8.53c0.173-2.479,0.576-6.859,0.576-9.625c0-0.519-0.057-0.807-0.115-0.807
				c-1.038,0-3.113,19.942-10.259,19.942C252.492,206.868,251.512,202.719,251.512,197.877z M260.964,170.961
				c0,2.19-1.672,4.956-3.689,4.956c-1.844,0-2.651-1.383-2.651-2.939c0-2.132,1.498-4.668,3.804-4.668
				C260.215,168.31,260.964,169.52,260.964,170.961z"/>
			<path fill="#F1E3FF" d="M301.081,186.523c-4.553,16.311,0,46.109-16.426,46.109c-4.381,0-8.127-4.438-8.127-8.53
				c0-0.634,0.231-0.922,0.576-0.922c0.231,0,0.577,0.231,0.75,0.576c0,2.133,1.902,5.879,4.842,5.879
				c12.449,0,11.93-24.323,12.334-30.547c-1.555,4.208-3.919,7.781-6.282,7.781c-4.15,0-5.995-4.611-5.995-9.913
				c0-7.031,3.285-15.274,8.877-15.274c2.017,0,3.4,0.807,4.265,2.017c2.191,0.174,5.245,0.634,5.245,2.363
				C301.139,186.177,301.139,186.35,301.081,186.523z M295.26,191.019l0.691-4.208c-0.979-0.865-2.132-1.268-2.939-1.268
				c-4.208,0-6.628,8.53-6.628,14.006c0,2.593,0.576,4.496,1.729,4.496C291.743,204.045,294.337,196.609,295.26,191.019z"/>
		</g>
	</g>
	<g>
		<g>
			<path fill="#FFFFFF" d="M134.486,119.273v22.163c0,2.593,0.544,3.554,2.259,3.554c0.836,0,1.756-0.293,2.634-0.67l1.087,3.346
				c-1.129,0.711-3.179,1.254-4.977,1.254c-5.645,0-5.98-3.303-5.98-6.439v-23.209h4.977V119.273z"/>
			<path fill="#FFFFFF" d="M145.57,118.435c1.714,0,2.886,1.255,2.886,2.802c0,1.59-1.213,2.76-2.886,2.76
				c-1.756,0-2.886-1.17-2.886-2.76C142.685,119.69,143.856,118.435,145.57,118.435z M143.103,148.294V127.26h4.976v21.034H143.103z
				"/>
			<path fill="#FFFFFF" d="M153.225,119.231h4.976v9.157c1.171-1.086,2.969-1.756,4.935-1.756c5.185,0,8.322,3.596,8.322,10.12
				c0,8.155-3.596,12.169-9.911,12.169c-2.928,0-6.566-0.794-8.322-1.798V119.231z M158.201,144.53
				c0.795,0.419,2.175,0.836,3.554,0.836c2.928,0,4.768-2.216,4.768-7.945c0-3.261-0.794-7.151-4.684-7.151
				c-1.923,0-3.638,1.255-3.638,3.137V144.53z"/>
			<path fill="#FFFFFF" d="M180.618,148.294h-4.976v-17.647l-0.377-3.387h4.099l0.501,3.052c0.92-2.383,2.969-3.68,5.061-3.68
				c1.254,0,2.425,0.293,3.345,0.836l-0.878,4.224c-0.92-0.502-1.882-0.836-2.969-0.836c-2.258,0-3.722,1.798-3.806,4.223
				L180.618,148.294L180.618,148.294z"/>
			<path fill="#FFFFFF" d="M198.644,126.632c3.095,0,9.116,0.962,9.116,10.58c0,8.029-4.265,11.709-9.785,11.709
				c-5.604,0-9.075-3.596-9.075-11.165C188.9,129.058,194.337,126.632,198.644,126.632z M202.659,137.881
				c0-4.684-1.087-7.569-4.265-7.569c-3.053,0-4.433,2.844-4.433,6.858c0,3.889,0.627,8.071,4.349,8.071
				C201.362,145.241,202.659,142.23,202.659,137.881z"/>
			<path fill="#FFFFFF" d="M211.443,143.234c1.381,0.878,3.848,2.006,5.981,2.006c1.756,0,3.178-0.794,3.178-2.676
				c0-1.881-1.589-2.467-3.554-3.052c-3.052-0.878-6.482-1.882-6.482-6.231s3.596-6.649,7.653-6.649
				c3.136,0,5.854,1.255,7.568,2.969l-2.383,2.928c-1.589-1.381-3.345-2.259-5.101-2.259c-1.506,0-2.928,0.753-2.928,2.425
				c0,1.924,1.756,2.468,3.722,3.053c3.052,0.962,6.44,2.175,6.44,6.482c0,4.349-3.221,6.69-7.904,6.69
				c-3.595,0-6.565-1.296-7.652-2.132L211.443,143.234z"/>
		</g>
		<g>
			<path fill="#FFFFFF" d="M252.263,127.505v-7.903h4.935v24.965l0.376,4.098h-4.265l-0.335-2.258l-0.166-0.042
				c-1.297,1.923-3.388,2.926-5.688,2.926c-6.524,0-8.238-5.101-8.238-10.329c0-7.151,3.68-11.96,10.12-11.96
				C250.339,127.003,251.301,127.212,252.263,127.505z M252.263,131.31c-0.753-0.334-1.84-0.669-3.136-0.669
				c-3.973,0-5.311,3.764-5.311,7.862c0,3.806,0.92,7.109,4.307,7.109c2.551,0,4.14-1.84,4.14-3.471V131.31z"/>
			<path fill="#FFFFFF" d="M278.193,132.816c0,6.44-7.987,7.276-11.834,7.318c0.166,2.718,1.714,5.353,5.269,5.353
				c2.467,0,4.265-1.129,5.269-1.84l1.547,3.303c-0.669,0.585-3.429,2.341-7.36,2.341c-6.9,0-9.743-4.433-9.743-10.705
				c0-6.147,3.554-11.583,10.204-11.583C275.642,127.003,278.193,129.094,278.193,132.816z M271.252,130.558
				c-3.345,0-4.934,3.262-5.06,6.356c2.258,0.042,7.568-0.669,7.568-3.888C273.76,131.478,272.757,130.558,271.252,130.558z"/>
		</g>
	</g>
</g>
<g>
	<g>
		<g>
			<path fill="#F8A040" d="M485.577,215.677c5.619,4.309,7.807,8.011,8.592,9.952l0.306,0.359l0.736,0.478
				c-0.422-1.492-2.376-6.246-10.186-11.824c-0.043,0.093-0.065,0.178-0.108,0.272L485.577,215.677z"/>
			<path fill="#FCC78B" d="M484.837,215.127c-0.057,0.142-0.112,0.282-0.16,0.421c-0.756,2.041-0.693,3.64,1.495,5.023l6.496,4.235
				l1.593,1.038l0.215,0.143l-0.306-0.359c-0.786-1.941-2.974-5.643-8.592-9.952l-0.659-0.763
				C484.892,214.986,484.869,215.057,484.837,215.127z"/>
			<path fill="#FAC67C" d="M485.106,214.433c-0.034,0.074-0.047,0.135-0.081,0.21c7.81,5.578,9.764,10.332,10.186,11.824
				l13.416,10.016l22.322,15.253c2.273,1.438,9.41-1.273,12.169-2.813c-1.644-0.648-5.045-0.625-6.388-2.699
				c-2.397-3.697-10.362-5.046-14.77-8.802c-4.407-3.753-8.817-8.412-10.303-8.773c-1.488-0.36-11.29-8.038-12.433-10.122
				c-0.436-0.8-1.047-2.054-1.633-3.291l-0.067-0.042C494.539,213.308,486.562,211.3,485.106,214.433z"/>
			<path fill="#F8A040" d="M499.225,218.527c1.143,2.083,10.945,9.762,12.433,10.122c1.486,0.361,5.896,5.019,10.303,8.773
				c4.408,3.756,12.373,5.105,14.77,8.802c1.344,2.074,4.744,2.051,6.388,2.699c0.304-0.165,0.563-0.364,0.813-0.564
				c0.462-0.374,0.859-0.783,1.083-1.266c1.22-2.621-2.43-3.273-5.008-4.903l-14.446-9.131l-17.63-11.236l-10.339-6.586
				C498.178,216.473,498.789,217.727,499.225,218.527z"/>
		</g>
		<g>
			<path fill="#F8A040" d="M496.117,216.556c4.626,3.817,6.35,7.014,6.943,8.677l0.25,0.31l0.607,0.43
				c-0.303-1.272-1.795-5.349-8.231-10.309c-0.043,0.08-0.063,0.145-0.1,0.227L496.117,216.556z"/>
			<path fill="#FCC78B" d="M495.51,216.066c-0.054,0.118-0.106,0.236-0.154,0.35c-0.719,1.699-0.722,3.048,1.091,4.287l5.369,3.785
				l1.317,0.93l0.178,0.124l-0.25-0.31c-0.593-1.663-2.318-4.86-6.943-8.677l-0.53-0.665
				C495.557,215.949,495.539,216.007,495.51,216.066z"/>
			<path fill="#FAC67C" d="M495.765,215.489c-0.032,0.059-0.045,0.114-0.078,0.175c6.436,4.96,7.928,9.037,8.231,10.309
				l11.042,8.887l18.424,13.599c1.883,1.287,8.049-0.767,10.452-1.978c-1.373-0.599-4.268-0.688-5.337-2.484
				c-1.902-3.198-8.626-4.595-12.236-7.91c-3.608-3.311-7.192-7.386-8.44-7.736c-1.251-0.352-9.31-7.153-10.205-8.948
				c-0.342-0.69-0.815-1.766-1.269-2.829l-0.054-0.037C503.826,214.846,497.115,212.893,495.765,215.489z"/>
			<path fill="#F8B26F" d="M507.618,219.401c0.896,1.795,8.954,8.596,10.205,8.948c1.248,0.351,4.832,4.425,8.44,7.736
				c3.61,3.315,10.334,4.712,12.236,7.91c1.069,1.796,3.964,1.885,5.337,2.484c0.262-0.133,0.492-0.287,0.711-0.448
				c0.405-0.301,0.757-0.635,0.968-1.035c1.13-2.17-1.948-2.839-4.083-4.298l-11.95-8.174L514.9,222.469l-8.551-5.896
				C506.803,217.635,507.275,218.711,507.618,219.401z"/>
		</g>
		<g>
			<path fill="#F8A040" d="M504.051,218.989c5.361,2.672,7.752,5.394,8.704,6.881l0.312,0.245l0.689,0.28
				c-0.579-1.166-2.94-4.799-10.325-8.174c-0.022,0.087-0.027,0.159-0.045,0.243L504.051,218.989z"/>
			<path fill="#FCC78B" d="M503.348,218.652c-0.027,0.129-0.049,0.254-0.075,0.376c-0.319,1.816-0.022,3.132,2.019,3.929
				l6.082,2.471l1.492,0.606l0.201,0.082l-0.312-0.245c-0.952-1.487-3.343-4.209-8.704-6.881l-0.665-0.526
				C503.37,218.529,503.362,218.588,503.348,218.652z"/>
			<path fill="#FAC67C" d="M513.756,226.395l12.754,6.16l21.006,9.073c2.787,1.085,8.678-0.767,9.422-3.597
				c0.623-2.367-0.884-4.832-3.292-5.771l-13.481-5.258l-26.186-10.329c-2.785-1.083-9.769-1.468-10.512,1.362
				c-0.015,0.066-0.018,0.12-0.035,0.186C510.816,221.596,513.177,225.229,513.756,226.395z"/>
		</g>
		<g>
			<g>
				<polygon fill="#4BA5A5" points="483.914,142.504 585.336,196.793 486.505,249.696 385.083,195.407 				"/>
				<polygon fill="#6FB7B7" points="483.914,104.742 585.336,159.032 486.505,211.935 385.083,157.645 				"/>
				<path fill="#387C7C" d="M486.505,211.935c0,0-21.641,16.12,0,37.761c-25.246-13.636-101.423-54.289-101.423-54.289
					s-19.772-17.991,0-37.762C442.903,188.684,486.505,211.935,486.505,211.935z"/>
				<path fill="#38676D" d="M484.272,214.003c0.76-0.703,1.44-1.401,2.321-2.111l63.559-34.023l35.272-18.88
					c0,0-18.433,19.328,0,37.761c-30.897,16.715-98.831,52.903-98.831,52.903C469.539,232.6,479.34,219.014,484.272,214.003z"/>
				<path fill="#FFFFFF" d="M486.273,216.15l0.639-0.598c0.479-0.458,0.955-0.918,1.066-1.073l93.612-50.226
					c-3.913,6.558-8.057,18.343,1.758,30.129l-2.694,1.447l-93.475,50.183C474.558,232.154,481.147,221.37,486.273,216.15z"/>
			</g>
			<path fill="#FFFFFF" d="M395.239,163.169c1.966,1.055,3.872,2.077,5.804,3.115c-19.629,19.738,0.076,37.676,0.076,37.676
				l-5.88-3.029C395.239,200.93,375.467,182.94,395.239,163.169z"/>
			<path fill="#FFFFFF" d="M468.648,202.546c1.966,1.056,3.872,2.078,5.804,3.115c-19.629,19.738,0.076,37.676,0.076,37.676
				l-5.88-3.029C468.648,240.307,448.876,222.317,468.648,202.546z"/>
			<polygon fill="#FFFFFF" points="424.028,158.426 488.368,123.985 517.58,139.622 453.24,174.063 			"/>
		</g>
		<path fill="#E6E6E6" d="M614.452,218.823c-5.933-3.703-12.153-7.576-18.52-11.522c5.27,3.809,10.366,7.512,15.318,11.125
			C612.318,218.588,613.383,218.644,614.452,218.823z"/>
		<path fill="#E6E6E6" d="M552.101,218.873c-1.256,0.153-2.489,0.388-3.739,0.569C549.593,219.198,550.862,219.091,552.101,218.873z
			"/>
		<path fill="#E6E6E6" d="M552.101,218.873c21.34-2.599,43.581-1.134,65.542,4.218c-2.078-1.518-4.261-3.109-6.392-4.665
			C591.186,215.392,571.2,215.521,552.101,218.873z"/>
		<path fill="#E6E6E6" d="M547.564,219.587c0.268-0.04,0.53-0.105,0.798-0.144C548.097,219.496,547.829,219.532,547.564,219.587z"/>
		<path fill="#FAAF40" d="M516.984,221.392"/>
		<path fill="#FAAF40" d="M537.989,223.014L537.989,223.014L537.989,223.014z"/>
		<path fill="#FAC67C" d="M609.469,215.955l-0.531,4.624l-0.075,0.66l-1.435,12.485l-37.719,1.791
			c-6.578,0.312-12.943,2.113-18.574,5.251l-7.705,4.296c-2.55,1.417-5.955,0.939-7.823-1.337c-1.895-2.314-1.596-5.432,0.354-7.321
			c-1.049-1.694-1.081-3.672-0.254-5.287c-1.262-1.817-1.873-2.471-0.879-4.205c-1.957,0.296-2.591-1.093-2.591-1.093
			s22.178-9.889,29.082-13.702c1.745-0.966,0.737-4.141-0.563-6.332c5.071-1.458,10.568-3.889,15.147-7.867
			c1.203,0.834,2.983,1.752,6.015,2.764C590.349,203.494,605.64,213.424,609.469,215.955z"/>
		<path fill="#F8B26F" d="M610.372,208.096l-0.879,7.643l-0.024,0.217c-3.829-2.531-19.12-12.462-27.551-15.273
			c-3.032-1.012-4.812-1.93-6.015-2.764c1.23-1.068,2.372-2.265,3.433-3.576c1.941,1.03,4.299,2.219,7.371,3.126
			C592.163,199.082,610.372,208.096,610.372,208.096z"/>
		<path fill="#FAC67C" d="M607.428,233.723c0,0-24.637,3.403-28.467,4.813c-3.83,1.404-12.029,3.999-14.477,4.842
			c-2.45,0.842-23.16,7.636-29.089,6.8c-5.927-0.836,9.601-6.872,9.601-6.872l28.725-14.772L607.428,233.723z"/>
		<polygon fill="#F0F0F0" points="597.102,218.447 614.057,218.764 618.8,197.319 613.79,240.26 594.58,240.03 		"/>
		<polygon opacity="0.15" fill="#999999" enable-background="new    " points="597.101,218.447 599.596,197.092 597.102,218.447 		
			"/>
		<polygon fill="#FFFFFF" points="597.102,218.447 599.596,197.092 618.8,197.319 614.057,218.764 		"/>
		<polygon fill="#53677A" points="612.32,195.569 924.523,191.301 924.193,221.572 607.552,218.686 		"/>
		<polygon fill="#6ECCCE" points="612.32,195.569 924.523,191.301 924.193,221.572 607.552,218.686 		"/>
		<polygon fill="#5BA5A0" points="607.552,218.686 924.193,221.572 923.837,248.845 602.781,241.804 		"/>
		<path fill="#53677A" d="M603.254,201.551c0.013-1.128,0.947-2.044,2.077-2.033c1.131,0.016,2.044,0.95,2.032,2.08
			c-0.011,1.13-0.946,2.045-2.078,2.031S603.241,202.683,603.254,201.551z"/>
		<path fill="#FFFFFF" d="M615.272,201.3c0.012-1.128,0.945-2.042,2.076-2.032c1.131,0.012,2.047,0.949,2.033,2.079
			c-0.013,1.129-0.949,2.043-2.077,2.032C616.171,203.366,615.258,202.429,615.272,201.3z"/>
		<path fill="#FFFFFF" d="M622.769,201.18c0.01-1.128,0.944-2.043,2.076-2.032c1.131,0.012,2.043,0.948,2.032,2.079
			c-0.013,1.128-0.948,2.044-2.078,2.031C623.668,203.244,622.753,202.309,622.769,201.18z"/>
		<g>
			<g>
				<line fill="none" x1="487.951" y1="218.924" x2="578.468" y2="171.429"/>
				
					<rect x="532.719" y="144.074" transform="matrix(-0.4639 -0.8859 0.8859 -0.4639 607.6555 758.0966)" fill="#E6E6E6" width="0.986" height="102.22"/>
			</g>
			<g>
				<line fill="none" x1="487.384" y1="223.406" x2="577.901" y2="175.912"/>
				
					<rect x="532.158" y="148.548" transform="matrix(-0.4631 -0.8863 0.8863 -0.4631 602.365 764.2095)" fill="#E6E6E6" width="0.985" height="102.217"/>
			</g>
			<g>
				<line fill="none" x1="487.426" y1="227.68" x2="577.943" y2="180.186"/>
				
					<rect x="532.194" y="152.831" transform="matrix(-0.4639 -0.8859 0.8859 -0.4639 599.1284 770.4509)" fill="#E6E6E6" width="0.986" height="102.221"/>
			</g>
			<g>
				<line fill="none" x1="488.285" y1="232.353" x2="578.803" y2="184.859"/>
				
					<rect x="533.059" y="157.494" transform="matrix(-0.4631 -0.8863 0.8863 -0.4631 595.7549 778.0977)" fill="#E6E6E6" width="0.985" height="102.218"/>
			</g>
			<g>
				<line fill="none" x1="490.149" y1="235.592" x2="580.666" y2="188.098"/>
				
					<rect x="534.909" y="160.735" transform="matrix(-0.4631 -0.8863 0.8863 -0.4631 595.589 784.4781)" fill="#E6E6E6" width="0.985" height="102.218"/>
			</g>
			<g>
				<line fill="none" x1="493.234" y1="238.818" x2="583.751" y2="191.324"/>
				
					<rect x="537.994" y="163.96" transform="matrix(-0.4631 -0.8863 0.8863 -0.4631 597.2437 791.9322)" fill="#E6E6E6" width="0.985" height="102.218"/>
			</g>
		</g>
		<g>
			<path fill="#FAC67C" d="M551.15,192.851l-9.558,1.605c-2.941,0.493-6.223-0.923-8.356-3.647c-0.921-1.177-1.32-2.457-1.109-3.494
				c1.701-0.142,7.232-0.818,10.092-3.462l6.76-1.253c2.94-0.493,5.833,1.412,6.432,4.23
				C556.009,189.65,554.091,192.36,551.15,192.851z"/>
			<path fill="#F8A040" d="M542.219,183.852l-0.917,0.175c-2.391,1.598-5.749,2.296-7.822,2.567
				c-0.467,0.058-0.845,0.105-1.146,0.13c-0.06,0.123-0.099,0.254-0.135,0.386c-0.021,0.068-0.058,0.133-0.073,0.204
				C533.828,187.172,539.359,186.496,542.219,183.852z"/>
			<path fill="#FCC78B" d="M533.481,186.594c2.073-0.271,5.43-0.969,7.822-2.567l-2.689,0.498l-2.529,0.47l-1.529,0.284
				c-0.978,0.163-1.626,0.587-2.024,1.146c-0.07,0.098-0.144,0.191-0.197,0.298C532.635,186.699,533.013,186.652,533.481,186.594z"
				/>
			<path fill="#FAC67C" d="M559.81,204.406l-11.815-11.977l-0.045-0.027l-0.123,0.365l-2.414-2.838
				c-1.872-2.195-1.286-5.017,1.322-6.217c2.823-1.301,4.039-1.57,6.172-0.773c1.853,0.36,3.859,0.996,5.876,1.733
				c4.956,1.848,10.632,8.151,13.121,9.246c1.799,0.788,1.358,2.169,3.999,4c-4.579,3.978-10.076,6.41-15.147,7.867
				C560.443,205.26,560.12,204.776,559.81,204.406z"/>
			<path fill="#F8B26F" d="M575.903,197.918c-2.641-1.831-2.2-3.212-3.999-4c-2.489-1.095-8.165-7.398-13.121-9.246
				c7.449,2.734,15.153,7.258,16.747,7.809c1.027,0.353,2.3,1.066,3.807,1.862C578.275,195.653,577.133,196.85,575.903,197.918z"/>
		</g>
	</g>
	<g>
		<g>
			<g>
				<polygon fill="#4BA5A5" points="484.436,103.914 578.727,154.387 486.846,203.57 392.555,153.098 				"/>
				<polygon fill="#6FB7B7" points="484.436,68.808 578.727,119.281 486.846,168.464 392.555,117.992 				"/>
				<path fill="#387C7C" d="M486.846,168.464c0,0-20.12,14.986,0,35.106c-23.471-12.677-94.291-50.472-94.291-50.472
					s-18.382-16.725,0-35.106C446.309,146.848,486.846,168.464,486.846,168.464z"/>
				<path fill="#38676D" d="M484.769,170.387c0.707-0.654,1.34-1.303,2.159-1.963l59.089-31.631l32.792-17.553
					c0,0-17.137,17.97,0,35.106c-28.725,15.54-91.881,49.184-91.881,49.184C471.073,187.676,480.185,175.046,484.769,170.387z"/>
				<path fill="#FFFFFF" d="M486.629,172.382l0.594-0.556c0.446-0.426,0.888-0.853,0.99-0.997l87.029-46.694
					c-3.638,6.097-7.491,17.054,1.634,28.011l-2.504,1.345l-86.902,46.654C475.738,187.262,481.863,177.236,486.629,172.382z"/>
			</g>
			<polygon fill="#FFFFFF" points="428.761,118.718 488.577,86.698 515.735,101.235 455.919,133.255 			"/>
		</g>
		<g>
			<g>
				<polygon fill="#4BA5A5" points="486.663,73.586 401.722,119.053 484.493,163.359 569.434,117.892 				"/>
				<polygon fill="#F55F14" points="486.663,41.96 401.722,87.428 484.493,131.734 569.434,86.267 				"/>
				<path fill="#D6460F" d="M484.493,131.734c0,0,18.125,13.501,0,31.625c21.144-11.42,84.941-45.468,84.941-45.468
					s16.558-15.067,0-31.625C521.01,112.261,484.493,131.734,484.493,131.734z"/>
				<path fill="#C1470F" d="M486.363,133.466c-0.636-0.589-1.206-1.174-1.944-1.769l-53.23-28.494l-29.54-15.812
					c0,0,15.437,16.188,0,31.625c25.876,13.998,82.77,44.306,82.77,44.306C498.702,149.041,490.493,137.663,486.363,133.466z"/>
				<path fill="#FFFFFF" d="M484.688,135.264l-0.535-0.501c-0.402-0.384-0.799-0.768-0.892-0.899l-78.4-42.064
					c3.277,5.493,6.747,15.362-1.473,25.233l2.257,1.212l78.284,42.028C494.499,148.668,488.981,139.636,484.688,135.264z"/>
			</g>
			<polygon fill="#FFFFFF" points="536.818,86.921 482.933,58.076 458.468,71.172 512.353,100.016 			"/>
		</g>
		<g>
			<line fill="none" x1="483.443" y1="137.646" x2="411.105" y2="100.587"/>
			
				<rect x="446.904" y="78.472" transform="matrix(0.4539 -0.891 0.891 0.4539 138.1284 463.6022)" fill="#E6E6E6" width="0.784" height="81.273"/>
		</g>
		<g>
			<line fill="none" x1="483.929" y1="141.207" x2="411.591" y2="104.147"/>
			
				<rect x="447.39" y="82.033" transform="matrix(0.4539 -0.891 0.891 0.4539 135.2206 465.9792)" fill="#E6E6E6" width="0.784" height="81.273"/>
		</g>
		<g>
			<line fill="none" x1="483.929" y1="144.605" x2="411.591" y2="107.546"/>
			
				<rect x="447.39" y="85.431" transform="matrix(0.4539 -0.891 0.891 0.4539 132.1925 467.8357)" fill="#E6E6E6" width="0.784" height="81.273"/>
		</g>
		<g>
			<line fill="none" x1="483.282" y1="148.327" x2="410.944" y2="111.268"/>
			
				<rect x="446.737" y="89.152" transform="matrix(0.4547 -0.8906 0.8906 0.4547 128.217 469.0004)" fill="#E6E6E6" width="0.784" height="81.274"/>
		</g>
		<g>
			<line fill="none" x1="481.825" y1="150.917" x2="409.487" y2="113.857"/>
			
				<rect x="445.28" y="91.741" transform="matrix(0.4547 -0.8906 0.8906 0.4547 125.1162 469.1142)" fill="#E6E6E6" width="0.784" height="81.274"/>
		</g>
		<g>
			<line fill="none" x1="479.398" y1="153.506" x2="407.06" y2="116.447"/>
			
				<rect x="442.853" y="94.333" transform="matrix(0.4551 -0.8904 0.8904 0.4551 121.3351 468.222)" fill="#E6E6E6" width="0.783" height="81.274"/>
		</g>
		<g>
			<g>
				<line fill="none" x1="487.476" y1="175.475" x2="566.71" y2="133.901"/>
				
					<rect x="526.681" y="109.95" transform="matrix(-0.4637 -0.886 0.886 -0.4637 634.4788 693.4357)" fill="#E6E6E6" width="0.863" height="89.478"/>
			</g>
			<g>
				<line fill="none" x1="486.98" y1="179.399" x2="566.214" y2="137.825"/>
				
					<rect x="526.162" y="113.88" transform="matrix(-0.4637 -0.886 0.886 -0.4637 630.2383 698.7278)" fill="#E6E6E6" width="0.863" height="89.478"/>
			</g>
			<g>
				<line fill="none" x1="487.017" y1="183.14" x2="566.25" y2="141.566"/>
				
					<rect x="526.198" y="117.62" transform="matrix(-0.4637 -0.886 0.886 -0.4637 626.9773 704.235)" fill="#E6E6E6" width="0.863" height="89.478"/>
			</g>
			<g>
				<line fill="none" x1="487.769" y1="187.231" x2="567.003" y2="145.656"/>
				
					<rect x="526.951" y="121.711" transform="matrix(-0.4637 -0.886 0.886 -0.4637 624.4539 710.8895)" fill="#E6E6E6" width="0.863" height="89.478"/>
			</g>
			<g>
				<line fill="none" x1="489.4" y1="190.065" x2="568.634" y2="148.491"/>
				
					<rect x="528.582" y="124.545" transform="matrix(-0.4637 -0.886 0.886 -0.4637 624.3311 716.4832)" fill="#E6E6E6" width="0.863" height="89.478"/>
			</g>
			<g>
				<line fill="none" x1="492.101" y1="192.89" x2="571.334" y2="151.315"/>
				
					<rect x="531.282" y="127.37" transform="matrix(-0.4637 -0.886 0.886 -0.4637 625.7798 723.0094)" fill="#E6E6E6" width="0.863" height="89.478"/>
			</g>
		</g>
		<polygon fill="#F55F14" points="550.582,162.405 543.235,169.751 543.235,151.959 558.78,143.637 558.78,170.604 		"/>
	</g>
</g>
</svg>
